<svg id="Printing_layer" data-name="Printing layer" xmlns="http://www.w3.org/2000/svg" viewBox="0 0 250.33 107.12"><defs><style>.cls-1{fill:#1d1d1b}</style></defs><title>lettring-bw</title><path class="cls-1" d="M54.92 8.65a10.6 10.6 0 0 0-.8 1.78 11.11 11.11 0 0 0-.45 1.77 9.67 9.67 0 0 0-.14 1.54 4.56 4.56 0 0 0 .28 1.68 2.91 2.91 0 0 0 .76 1.14 3 3 0 0 0 1.17.63 5.33 5.33 0 0 0 1.48.2 4.34 4.34 0 0 0 2-.48 5.22 5.22 0 0 0 1.68-1.35 7.71 7.71 0 0 0 1.21-2.18 10.87 10.87 0 0 0 .62-2.88 9.21 9.21 0 0 0 2.25-.67l-1.59 7.52h3.32l1.84-8.79a6.73 6.73 0 0 1 .79-.64 1.56 1.56 0 0 1 .89-.24.27.27 0 0 1 .24.11 1 1 0 0 1 .12.28c0 .11.06.23.08.37a1.27 1.27 0 0 0 .13.37.76.76 0 0 0 .26.28.92.92 0 0 0 .5.11 1.67 1.67 0 0 0 .73-.15 1.62 1.62 0 0 0 .52-.39 1.57 1.57 0 0 0 .36-.56 1.88 1.88 0 0 0 .1-.6 2.15 2.15 0 0 0-.1-.65 1.57 1.57 0 0 0-.31-.55 1.54 1.54 0 0 0-.5-.38 1.56 1.56 0 0 0-.69-.15 2.45 2.45 0 0 0-.79.12 4 4 0 0 0-.72.32 4.68 4.68 0 0 0-.66.46l-.62.53.29-1.44h-3.35l-.65 2.94-.34.16a7.19 7.19 0 0 1-.94.31 3.53 3.53 0 0 1-.87.12h-.22q0-3.68-3-3.68a5 5 0 0 0-2.11.42 5.72 5.72 0 0 0-1.63 1.11 6.86 6.86 0 0 0-1.14 1.51zm2.15 3.51a13.5 13.5 0 0 1 .32-1.42 12.38 12.38 0 0 1 .49-1.4 7.9 7.9 0 0 1 .63-1.21 3.82 3.82 0 0 1 .73-.85 1.24 1.24 0 0 1 .8-.32 1 1 0 0 1 .39.07.57.57 0 0 1 .25.23 1.32 1.32 0 0 1 .16.42 4 4 0 0 1 .08.63 1.2 1.2 0 0 0-.53.46 1.47 1.47 0 0 0-.22.79 1.36 1.36 0 0 0 .13.61.69.69 0 0 0 .49.36 11.18 11.18 0 0 1-.41 1.89 8.13 8.13 0 0 1-.64 1.52 3.89 3.89 0 0 1-.78 1 1.28 1.28 0 0 1-.84.37 1.7 1.7 0 0 1-.55-.08.71.71 0 0 1-.36-.29 1.43 1.43 0 0 1-.2-.57 5.76 5.76 0 0 1-.06-.93 8.21 8.21 0 0 1 .12-1.28zm15.55-.13a9.83 9.83 0 0 0-.16 1.69 5.08 5.08 0 0 0 .26 1.73 3.16 3.16 0 0 0 .69 1.11 2.48 2.48 0 0 0 1 .63 3.47 3.47 0 0 0 1.15.19 3.4 3.4 0 0 0 1.06-.16 3.57 3.57 0 0 0 .89-.43 4.29 4.29 0 0 0 .66-.56 6.93 6.93 0 0 0 .6-.71 2.73 2.73 0 0 0 .32.87 2 2 0 0 0 .53.6 2.14 2.14 0 0 0 .71.34 3.15 3.15 0 0 0 .83.11 2.91 2.91 0 0 0 .89-.14 2.33 2.33 0 0 0 .79-.43 2.37 2.37 0 0 0 .58-.74 2.73 2.73 0 0 0 .28-1.06l-.27.1a1.79 1.79 0 0 1-.47 0 .89.89 0 0 1-.74-.27 1 1 0 0 1-.2-.66 2.3 2.3 0 0 1 0-.32 2.54 2.54 0 0 1 .15-.36l2.65-12.45-3.41.46-1.13 5.3v-.05a1 1 0 0 0-.44-.83 2.37 2.37 0 0 0-1.42-.34 4.4 4.4 0 0 0-1.84.38 5.26 5.26 0 0 0-1.49 1 6.93 6.93 0 0 0-1.15 1.46 10.28 10.28 0 0 0-.82 1.73 10.8 10.8 0 0 0-.5 1.81zm3.35.14a11.42 11.42 0 0 1 .78-2.75 6.69 6.69 0 0 1 .64-1.19 3.4 3.4 0 0 1 .78-.83 1.53 1.53 0 0 1 .92-.32 1 1 0 0 1 .44.08.78.78 0 0 1 .28.21 1 1 0 0 1 .15.27 1.54 1.54 0 0 1 .07.24l-1.1 5.28-.09.4a2.87 2.87 0 0 1-.34.73 2.45 2.45 0 0 1-.46.52 1.9 1.9 0 0 1-.51.32 1.28 1.28 0 0 1-.49.11 2.17 2.17 0 0 1-.36 0 .69.69 0 0 1-.38-.21 1.4 1.4 0 0 1-.3-.53 3.31 3.31 0 0 1-.12-1 8.32 8.32 0 0 1 .1-1.32zM45.76 34.12a20.08 20.08 0 0 0 1.6-7.72 16.43 16.43 0 0 0-1.1-6 13.66 13.66 0 0 0-3.45-5.06l-.26-.22 3.62-9.56.27 11.73h3.32L56.17.11h-1.66l-4.84 14.12-.2-14.12h-2.93l-4.85 14.12-.2-14.18h-.92a8.39 8.39 0 0 0-1.94.23 10.07 10.07 0 0 0-3.55 1.62 8 8 0 0 0-1.36 1.23 5.65 5.65 0 0 0-.91 1.41 3.66 3.66 0 0 0-.33 1.51 3 3 0 0 0 .16 1.06 1.63 1.63 0 0 0 .47.69 2 2 0 0 0 .77.38 4.31 4.31 0 0 0 1.06.12.33.33 0 0 0-.05-.16 1.52 1.52 0 0 1-.11-.25 3.11 3.11 0 0 1-.11-.44 4.07 4.07 0 0 1-.05-.71 5.47 5.47 0 0 1 .91-3.22 5.23 5.23 0 0 1 2.53-1.96l.26 10.89c-.46-.21-.94-.42-1.44-.6a24.79 24.79 0 0 0-8.55-1.29 29.45 29.45 0 0 0-6.8.81 35.14 35.14 0 0 0-12.36 5.61 27.92 27.92 0 0 0-4.77 4.29 19.71 19.71 0 0 0-3.23 4.93 12.83 12.83 0 0 0-1.16 5.28 10.44 10.44 0 0 0 .57 3.7 5.69 5.69 0 0 0 1.65 2.38 6.74 6.74 0 0 0 2.7 1.32 15 15 0 0 0 3.7.41 1.16 1.16 0 0 0-.18-.55 5.59 5.59 0 0 1-.37-.89 10.82 10.82 0 0 1-.37-1.54 14.28 14.28 0 0 1-.18-2.5 22.62 22.62 0 0 1 1.42-8.25 16.6 16.6 0 0 1 4.1-6.17 18 18 0 0 1 6.55-3.83 26.92 26.92 0 0 1 8.8-1.34 11 11 0 0 1 4.55.87 8.23 8.23 0 0 1 3.11 2.38 10 10 0 0 1 1.77 3.51 15.28 15.28 0 0 1 .57 4.24 21.66 21.66 0 0 1-.47 4.43 24.86 24.86 0 0 1-3.51 8.49 18.53 18.53 0 0 1-2.82 3.42 15.1 15.1 0 0 1-3.43 2.41 10.06 10.06 0 0 1-3.88 1.1L30 18.12 18.09 19.7 7.17 71.03h11.55l4.92-23h.43a23.38 23.38 0 0 0 17.08-7 21.86 21.86 0 0 0 4.61-6.91z"/><path class="cls-1" d="M160.6 46.09a11 11 0 0 0 2.86-2.19 22.79 22.79 0 0 0 2.25-2.8 27.24 27.24 0 0 0 1.77-3l1.44-2.82h-2.56q-.35.59-.93 1.46a15.42 15.42 0 0 1-1.3 1.69 11 11 0 0 1-1.62 1.5 5 5 0 0 1-1.91.91q-.71-10.88-10.24-10.87a17.64 17.64 0 0 0-7.41 1.48 19.43 19.43 0 0 0-5.65 3.88 23.71 23.71 0 0 0-4.1 5.46 36.63 36.63 0 0 0-2.72 6.24 39.69 39.69 0 0 0-1.52 6.21c-.19 1.19-.3 2.29-.38 3.33h-2.21a14.23 14.23 0 0 1-1.22 2.86 10.55 10.55 0 0 1-1.69 2.26 7.4 7.4 0 0 1-2.07 1.48 5.34 5.34 0 0 1-2.3.53 3.87 3.87 0 0 1-2.48-.65 2.91 2.91 0 0 1-.79-2.34q0-.63.06-1.28a6.88 6.88 0 0 1 .26-1.32l5.16-24.19h4.87l.63-3.23h-4.85l1.67-7.72 3.11-.75 1.17-5.66a1.89 1.89 0 0 0 .25.31 1.39 1.39 0 0 0 .38.26 2.33 2.33 0 0 0 .56.18 3.82 3.82 0 0 0 .77.07 4.76 4.76 0 0 0 2-.39 4.87 4.87 0 0 0 1.49-1 5.83 5.83 0 0 0 1.03-1.43 10 10 0 0 0 .68-1.74 11.61 11.61 0 0 0 .37-1.81 14.29 14.29 0 0 0 .11-1.68 5.82 5.82 0 0 0-.22-1.72 3 3 0 0 0-.6-1.12 2.18 2.18 0 0 0-.89-.61 3.26 3.26 0 0 0-1.1-.19 3.85 3.85 0 0 0-1.53.28 4.59 4.59 0 0 0-1.16.71l.37-1.73h-3.32l-1.8 8.5c-.08.2-.17.4-.26.58a3.3 3.3 0 0 1-.41.65 1.66 1.66 0 0 1-.51.42 1.4 1.4 0 0 1-.65.15.85.85 0 0 1-.73-.27 1.16 1.16 0 0 1-.2-.7 4 4 0 0 1 .08-.76q.08-.43.2-.94t.27-1.06q.15-.55.26-1.11c.08-.37.15-.73.2-1.09a6.39 6.39 0 0 0 .08-1 3.3 3.3 0 0 0-.19-1.18 2 2 0 0 0-1.35-1.27 3.39 3.39 0 0 0-1-.15 4.06 4.06 0 0 0-.7.07 3.09 3.09 0 0 0-.8.27 3.9 3.9 0 0 0-.86.59 5 5 0 0 0-.85 1 2.79 2.79 0 0 0-.3-.92 2 2 0 0 0-.52-.61 2 2 0 0 0-.7-.34 3.19 3.19 0 0 0-.84-.11 4.21 4.21 0 0 0-.64.05 3.21 3.21 0 0 0-.7.19 3.77 3.77 0 0 0-.73.39 4.13 4.13 0 0 0-.74.67l.25-1.19h-3.32l-1.57 7.39a5.82 5.82 0 0 1-.3.84 3.21 3.21 0 0 1-.42.69 2 2 0 0 1-.52.47 1.18 1.18 0 0 1-.62.17.86.86 0 0 1-.95-1 3 3 0 0 1 0-.37 2.25 2.25 0 0 1 .08-.38l1.65-7.83h-3.32l-.25 1.23v-.17a1 1 0 0 0-.44-.83 2.37 2.37 0 0 0-1.42-.34 4.4 4.4 0 0 0-1.84.38 5.26 5.26 0 0 0-1.49 1 6.93 6.93 0 0 0-1.15 1.46 10.28 10.28 0 0 0-.82 1.73 10.81 10.81 0 0 0-.48 1.8 9.82 9.82 0 0 0-.12 1.27 5.75 5.75 0 0 1-1.82 1.54 5.35 5.35 0 0 1-2.52.61 3.12 3.12 0 0 1-1.38-.26 2.1 2.1 0 0 1-.84-.74 3 3 0 0 1-.43-1.13 8.34 8.34 0 0 1-.12-1.46 17.14 17.14 0 0 1 .18-2.43 21.24 21.24 0 0 1 .49-2.45 17.4 17.4 0 0 1 .76-2.26 10.92 10.92 0 0 1 1-1.87 5.4 5.4 0 0 1 1.09-1.28 2 2 0 0 1 1.24-.47 1.63 1.63 0 0 1 .65.12 1.23 1.23 0 0 1 .44.31 1.14 1.14 0 0 1 .24.45 1.94 1.94 0 0 1 .07.53 2.61 2.61 0 0 1-.09.68 3.19 3.19 0 0 1-.24.62 2.46 2.46 0 0 1-.34.51 1.3 1.3 0 0 1-.39.32 1.43 1.43 0 0 0 .68.5 2.35 2.35 0 0 0 .63.1 1.64 1.64 0 0 0 .75-.16 1.36 1.36 0 0 0 .51-.44 1.9 1.9 0 0 0 .28-.68 4 4 0 0 0 .08-.85 3.07 3.07 0 0 0-.3-1.41 2.59 2.59 0 0 0-.82-1 3.6 3.6 0 0 0-1.23-.55 6.21 6.21 0 0 0-1.5-.17 6.06 6.06 0 0 0-2.08.34 6.42 6.42 0 0 0-1.72.94 7.48 7.48 0 0 0-1.4 1.41 11.34 11.34 0 0 0-1.09 1.74 13.88 13.88 0 0 0-.8 1.93 19.51 19.51 0 0 0-.54 2 17.52 17.52 0 0 0-.31 1.92 16.75 16.75 0 0 0-.1 1.72 9.68 9.68 0 0 0 .31 2.63 4.28 4.28 0 0 0 .93 1.76 3.59 3.59 0 0 0 1.57 1 7.45 7.45 0 0 0 4 .07 7.58 7.58 0 0 0 1.87-.75 7.33 7.33 0 0 0 1.7-1.33 5.58 5.58 0 0 0 .59-.75 4.16 4.16 0 0 0 .2.86 3.16 3.16 0 0 0 .69 1.15 2.48 2.48 0 0 0 1 .63 3.47 3.47 0 0 0 1.15.19 3.29 3.29 0 0 0 1.13-.19 3.82 3.82 0 0 0 .93-.48 4.57 4.57 0 0 0 .75-.68 9 9 0 0 0 .62-.77 2.47 2.47 0 0 0 .7 1.58 2.21 2.21 0 0 0 1.56.53 4.42 4.42 0 0 0 .68-.06 3.65 3.65 0 0 0 .78-.21 4.12 4.12 0 0 0 .83-.45 4.49 4.49 0 0 0 .82-.75l-.32 1.34h3.32l1.56-7.39a6.68 6.68 0 0 1 .32-.83 3.41 3.41 0 0 1 .41-.69 1.88 1.88 0 0 1 .52-.46 1.21 1.21 0 0 1 .63-.17.6.6 0 0 1 .33.08.7.7 0 0 1 .21.23 1 1 0 0 1 .12.32 2.15 2.15 0 0 1 0 .38 2.31 2.31 0 0 1-.07.57l-1.69 8h3.34l1.56-7.39a6.56 6.56 0 0 1 .32-.83 3.48 3.48 0 0 1 .41-.68 1.94 1.94 0 0 1 .5-.46 1.08 1.08 0 0 1 .58-.17q.83 0 .83 1.18a6.46 6.46 0 0 1-.16 1.32q-.16.77-.36 1.59c-.13.55-.25 1.08-.35 1.6a6.81 6.81 0 0 0-.16 1.37 3.33 3.33 0 0 0 .14 1 2.26 2.26 0 0 0 .46.83 2.21 2.21 0 0 0 .83.58 3.3 3.3 0 0 0 1.28.22 4.24 4.24 0 0 0 1-.13 3 3 0 0 0 1.12-.58 4.18 4.18 0 0 0 .49-.47l-.37 1.73-11.54 1.52-2.44 11.15h-2.64l-.28 1.34a5.57 5.57 0 0 0-1.21-.83 5.44 5.44 0 0 0-2.42-.51 8.68 8.68 0 0 0-2.76.43 13.82 13.82 0 0 0-2.5 1.12 16.74 16.74 0 0 0-2.3 1.6q-1.1.91-2.17 1.85l1-5H83.42l-2.15 10.14c-.5.24-1 .47-1.52.67a25.13 25.13 0 0 1-3.29 1.04 12.49 12.49 0 0 1-3.05.41h-.49a1 1 0 0 1-.37-.08v-.03q0-12.88-10.36-12.88a17.54 17.54 0 0 0-7.37 1.48 20 20 0 0 0-5.65 3.88 24 24 0 0 0-4.18 5.46 37.16 37.16 0 0 0-2.8 6.24 38.82 38.82 0 0 0-1.58 6.21 33.75 33.75 0 0 0-.49 5.38 16 16 0 0 0 1 5.89 10.19 10.19 0 0 0 2.68 3.94 10.47 10.47 0 0 0 4.1 2.21 18.6 18.6 0 0 0 5.18.69 15.16 15.16 0 0 0 7-1.69 18.27 18.27 0 0 0 5.87-4.85 27 27 0 0 0 4.24-7.64 38 38 0 0 0 2.15-10.09 32 32 0 0 0 8.12-2.53L74.86 71h11.62l6.46-30.65a23.56 23.56 0 0 1 2.76-2.23 5.46 5.46 0 0 1 3.11-.85.94.94 0 0 1 .85.39 3.43 3.43 0 0 1 .41 1q.16.59.3 1.28a4.63 4.63 0 0 0 .45 1.28 2.64 2.64 0 0 0 .93 1 3.23 3.23 0 0 0 1.75.39 5.85 5.85 0 0 0 2.56-.53 5.71 5.71 0 0 0 1.83-1.36 5.49 5.49 0 0 0 .44-.61l-3.5 16.45q-.32 1.54-.47 2.86a20.82 20.82 0 0 0-.16 2.42 12.65 12.65 0 0 0 .67 4.37 8.28 8.28 0 0 0 1.83 3 7.05 7.05 0 0 0 2.74 1.73 10.21 10.21 0 0 0 3.39.55 17.17 17.17 0 0 0 2.42-.2 14.21 14.21 0 0 0 2.86-.75 15.85 15.85 0 0 0 6.21-4.25 23.48 23.48 0 0 0 2.91-4.06 27.74 27.74 0 0 0 1.31-2.57 15 15 0 0 0 .93 4.83 10.17 10.17 0 0 0 2.68 3.94 10.46 10.46 0 0 0 4.1 2.21 18.6 18.6 0 0 0 5.18.69 15 15 0 0 0 7.14-1.77 18.36 18.36 0 0 0 5.87-5 27.4 27.4 0 0 0 4.16-8 40.59 40.59 0 0 0 2-10.47zm-31-37.65a2.48 2.48 0 0 1 .76-.85 1.51 1.51 0 0 1 .83-.29 1.46 1.46 0 0 1 .36.05.76.76 0 0 1 .38.24 1.56 1.56 0 0 1 .3.57 3.5 3.5 0 0 1 .12 1 11.25 11.25 0 0 1-.07 1.21 11.75 11.75 0 0 1-.23 1.36 10.34 10.34 0 0 1-.41 1.34 5.24 5.24 0 0 1-.61 1.17 3.1 3.1 0 0 1-.83.82 1.93 1.93 0 0 1-1.08.31.94.94 0 0 1-.6-.17.83.83 0 0 1-.28-.36zm-27.54 4.72a3.17 3.17 0 0 1-.33.89 2.79 2.79 0 0 1-.48.64 2 2 0 0 1-.55.38 1.33 1.33 0 0 1-.55.13 2.17 2.17 0 0 1-.36 0 .69.69 0 0 1-.38-.21 1.4 1.4 0 0 1-.3-.53 3.31 3.31 0 0 1-.12-1 8.32 8.32 0 0 1 .1-1.22 11.41 11.41 0 0 1 .78-2.75 6.7 6.7 0 0 1 .64-1.19 3.41 3.41 0 0 1 .79-.84 1.53 1.53 0 0 1 .92-.32 1 1 0 0 1 .46.1.88.88 0 0 1 .29.24.93.93 0 0 1 .15.29.9.9 0 0 1 0 .25zm-38 28a5.08 5.08 0 0 0-.69 2.78 4.82 4.82 0 0 0 .45 2.15 2.41 2.41 0 0 0 1.71 1.24 39.49 39.49 0 0 1-1.36 6.6 28 28 0 0 1-2.23 5.32 13.46 13.46 0 0 1-2.77 3.55 4.48 4.48 0 0 1-2.94 1.3 5.9 5.9 0 0 1-1.93-.28 2.52 2.52 0 0 1-1.28-1 5.08 5.08 0 0 1-.71-2 20 20 0 0 1-.22-3.27 28.51 28.51 0 0 1 .39-4.47 44 44 0 0 1 1.1-5 41.75 41.75 0 0 1 1.71-4.91 27.32 27.32 0 0 1 2.2-4.24 13.28 13.28 0 0 1 2.54-3 4.31 4.31 0 0 1 2.8-1.12 3.36 3.36 0 0 1 1.36.24 2 2 0 0 1 .89.81 4.78 4.78 0 0 1 .55 1.46 14.2 14.2 0 0 1 .29 2.24 4.15 4.15 0 0 0-1.83 1.59zm45.18-5.35a7.32 7.32 0 0 0-.28-1.32 5.78 5.78 0 0 0-.24-.55h.92zm44.47 11.52a42.4 42.4 0 0 1-1.4 6.62 28.15 28.15 0 0 1-2.15 5.32 13.33 13.33 0 0 1-2.66 3.55 4.35 4.35 0 0 1-2.9 1.3 5.89 5.89 0 0 1-1.93-.28 2.52 2.52 0 0 1-1.28-1 5.06 5.06 0 0 1-.71-2 20 20 0 0 1-.22-3.27 29.92 29.92 0 0 1 .37-4.47 44.59 44.59 0 0 1 2.72-9.89 26 26 0 0 1 2.15-4.24 12.91 12.91 0 0 1 2.52-3 4.26 4.26 0 0 1 2.76-1.12 2.46 2.46 0 0 1 2.19 1 7.85 7.85 0 0 1 .89 3.6q-2.29 1.1-2.29 4.21.04 2.9 1.97 3.65zm8.06 22.9a6.75 6.75 0 0 1 1.57.18q.77.18 1.5.39l1.43.39a5.53 5.53 0 0 0 1.39.18 4.22 4.22 0 0 0 1.46-.25 4 4 0 0 0 1.23-.71 3.42 3.42 0 0 0 .85-1.1 3.17 3.17 0 0 0 .32-1.43 5.37 5.37 0 0 0-.37-1.79l-.08-.06a4.73 4.73 0 0 1-1.41 1.15 3.23 3.23 0 0 1-1.4.32 5.82 5.82 0 0 1-1-.1l-1.15-.23c-.4-.08-.82-.16-1.26-.22a9.25 9.25 0 0 0-1.37-.1h-.86a5.78 5.78 0 0 0-.9.17 7.52 7.52 0 0 1 1.12-1.53 18.38 18.38 0 0 1 1.5-1.43q.82-.7 1.73-1.39t1.79-1.39q.88-.7 1.68-1.45a11.77 11.77 0 0 0 1.41-1.56 7.43 7.43 0 0 0 1-1.72 5.19 5.19 0 0 0 .36-1.94 5.61 5.61 0 0 0-.42-2.21 4.64 4.64 0 0 0-1.16-1.65 5.14 5.14 0 0 0-1.77-1 6.77 6.77 0 0 0-2.25-.36 7.12 7.12 0 0 0-2.61.44 5.86 5.86 0 0 0-1.89 1.15 4.94 4.94 0 0 0-1.15 1.59 4.23 4.23 0 0 0-.39 1.74 4.42 4.42 0 0 0 .17 1.27 3 3 0 0 0 .45.94 1.9 1.9 0 0 0 .66.58 1.71 1.71 0 0 0 .8.2 2.71 2.71 0 0 0 1.11-.26 4.06 4.06 0 0 0 1.07-.71v-.11a2.78 2.78 0 0 1-1-1.08 3.66 3.66 0 0 1-.41-1.79 2.45 2.45 0 0 1 .17-.91 2.29 2.29 0 0 1 .46-.75 2.1 2.1 0 0 1 .72-.5 2.31 2.31 0 0 1 .93-.18 1.73 1.73 0 0 1 1 .27 2.09 2.09 0 0 1 .68.74 3.57 3.57 0 0 1 .39 1.13 8 8 0 0 1 .12 1.43 6 6 0 0 1-.41 2.21 9.59 9.59 0 0 1-1.08 2 15.64 15.64 0 0 1-1.54 1.86q-.87.9-1.76 1.77l-1.76 1.74a17.94 17.94 0 0 0-1.55 1.75 8.85 8.85 0 0 0-1.1 1.83 5 5 0 0 0-.43 2 5.65 5.65 0 0 0 .17 1.35h.11a7.11 7.11 0 0 1 1.67-.65 6.69 6.69 0 0 1 1.46-.21zm25.94-6.78a24.44 24.44 0 0 0 .65-2.53 24.82 24.82 0 0 0 .37-2.46q.12-1.2.12-2.26a11.36 11.36 0 0 0-.33-2.84 6.16 6.16 0 0 0-1-2.19 4.62 4.62 0 0 0-1.73-1.41 5.68 5.68 0 0 0-2.47-.5 7 7 0 0 0-2.76.55 8.51 8.51 0 0 0-2.38 1.53 11.17 11.17 0 0 0-2 2.36 15.88 15.88 0 0 0-1.47 3 19.89 19.89 0 0 0-.92 3.53 23.17 23.17 0 0 0-.32 3.86 13.77 13.77 0 0 0 .27 2.82 6.3 6.3 0 0 0 .94 2.29 4.59 4.59 0 0 0 1.79 1.53 6.26 6.26 0 0 0 2.81.56 6.85 6.85 0 0 0 2.44-.42 7.51 7.51 0 0 0 2-1.15 8.93 8.93 0 0 0 1.65-1.73 14.13 14.13 0 0 0 1.29-2.15 17.92 17.92 0 0 0 1.05-2.39zm-3-4.9a31.2 31.2 0 0 1-.53 3.24 23.75 23.75 0 0 1-.83 2.9 14.09 14.09 0 0 1-1.07 2.34 6.13 6.13 0 0 1-1.21 1.53 2.11 2.11 0 0 1-1.37.57 1.29 1.29 0 0 1-1-.37 2.46 2.46 0 0 1-.57-1 6.18 6.18 0 0 1-.28-1.38q-.08-.77-.08-1.59a24.59 24.59 0 0 1 .22-3.25 30.48 30.48 0 0 1 .59-3.19 23.13 23.13 0 0 1 .89-2.89 15.18 15.18 0 0 1 1.13-2.36 6.67 6.67 0 0 1 1.27-1.59 2.06 2.06 0 0 1 1.36-.58 1 1 0 0 1 .75.34 2.58 2.58 0 0 1 .52.92 6.69 6.69 0 0 1 .3 1.34 12.53 12.53 0 0 1 .1 1.6 30.1 30.1 0 0 1-.14 3.43zm11.01-7.84a15.29 15.29 0 0 1-2 .68 9.48 9.48 0 0 1-1.63.29c-.49 0-.93.06-1.32.06l-.34 1.32h2.74l-3.8 18h4.15l4.59-21.56a17.53 17.53 0 0 1-2.39 1.21zm15.82 10.11a4.61 4.61 0 0 0-.9-1.57 3.78 3.78 0 0 0-1.39-1 4.68 4.68 0 0 0-1.8-.34 5.51 5.51 0 0 0-2.79.68 3.83 3.83 0 0 0-1.7 2h-.1a22.13 22.13 0 0 1 .9-3.8 15.58 15.58 0 0 1 1.35-3 7.57 7.57 0 0 1 1.63-2 2.77 2.77 0 0 1 1.76-.72 1.53 1.53 0 0 1 .66.13 1.4 1.4 0 0 1 .47.36 1.47 1.47 0 0 1 .28.52 2 2 0 0 1 .09.6 2.11 2.11 0 0 1-.24 1 1.58 1.58 0 0 1-.7.71 1.41 1.41 0 0 0 .58.66 1.66 1.66 0 0 0 .89.25 1.77 1.77 0 0 0 .84-.2 2.06 2.06 0 0 0 .67-.56 2.76 2.76 0 0 0 .44-.84 3.25 3.25 0 0 0 .16-1 3 3 0 0 0-.29-1.34 2.93 2.93 0 0 0-.84-1 4 4 0 0 0-1.32-.66 5.94 5.94 0 0 0-1.72-.23 7.38 7.38 0 0 0-2.69.5 8.85 8.85 0 0 0-2.41 1.41 11.24 11.24 0 0 0-2 2.2 14.35 14.35 0 0 0-1.56 2.86 18 18 0 0 0-1 3.38 19.44 19.44 0 0 0-.36 3.78 14.81 14.81 0 0 0 .35 3.47 6 6 0 0 0 1.08 2.36 4.26 4.26 0 0 0 1.84 1.34 7.25 7.25 0 0 0 2.62.43 6.38 6.38 0 0 0 2-.32 7.42 7.42 0 0 0 1.81-.88 8.29 8.29 0 0 0 1.54-1.33 8.55 8.55 0 0 0 1.2-1.69 8.89 8.89 0 0 0 .77-1.95 8.12 8.12 0 0 0 .27-2.1 6.29 6.29 0 0 0-.39-2.11zm-3.64 4.52a7.4 7.4 0 0 1-.76 1.88 4.27 4.27 0 0 1-1.06 1.24 1.92 1.92 0 0 1-2.14.23 1.85 1.85 0 0 1-.72-.73 4.27 4.27 0 0 1-.46-1.3 9.9 9.9 0 0 1-.16-1.93 9.69 9.69 0 0 1 .18-2 4.46 4.46 0 0 1 .58-1.5 2.75 2.75 0 0 1 1-1 3.1 3.1 0 0 1 1.51-.34 2.57 2.57 0 0 1 .93.16 1.75 1.75 0 0 1 .72.52 2.61 2.61 0 0 1 .48.94 4.9 4.9 0 0 1 .18 1.41 9.1 9.1 0 0 1-.28 2.43zm-41.86 11.32h-.7l-.55 2.9h-2.22l.6-2.9h-.7l-.6 2.9h-2.09v.68h2l-.61 3.12h-1.91v.66h1.79l-.54 2.88h.66l.54-2.88h2.21l-.54 2.88h.7l.54-2.88h1.92v-.66h-1.79l.58-3.1h1.74v-.7h-1.61zm-2 6.7h-2.22l.58-3.1h2.22zm10.91 1.77l-.16.74-.2-.8-1.8-5.78h-.72l-1.83 5.82-.17.69-.13-.65-1.61-5.86h-.86l2.21 7.61h.72l1.91-6.03.1-.42.09.41 1.96 6.04h.71l2.22-7.61h-.87l-1.57 5.84zm5.08-4.44a2.29 2.29 0 0 1 3.25-.27 2.06 2.06 0 0 1 .64 1.44h.81a2.73 2.73 0 0 0-.87-2 2.94 2.94 0 0 0-2.07-.75 3.12 3.12 0 0 0-1.72.47 3 3 0 0 0-1.13 1.34 4.76 4.76 0 0 0-.39 2v.25a4.22 4.22 0 0 0 .88 2.8 2.94 2.94 0 0 0 2.37 1 3.2 3.2 0 0 0 1.43-.32 2.72 2.72 0 0 0 1.07-.9 2.39 2.39 0 0 0 .44-1.27h-.81a1.74 1.74 0 0 1-.64 1.28 2.23 2.23 0 0 1-1.47.49 2.11 2.11 0 0 1-1.78-.82 3.64 3.64 0 0 1-.63-2.27v-.25a3.72 3.72 0 0 1 .62-2.22zm9.58-1.54a2.7 2.7 0 0 0-2.38 1.22v-1.08h-.78v10.54h.84v-3.88a2.82 2.82 0 0 0 2.39 1.1 2.51 2.51 0 0 0 2.11-1 4.59 4.59 0 0 0 .79-2.83v-.12a4.68 4.68 0 0 0-.78-2.87 2.53 2.53 0 0 0-2.19-1.08zm1.48 6.33a1.91 1.91 0 0 1-1.66.85 2.49 2.49 0 0 1-1.33-.34 2.24 2.24 0 0 1-.87-1v-3.65a2.22 2.22 0 0 1 2.18-1.46 1.93 1.93 0 0 1 1.67.84 3.92 3.92 0 0 1 .6 2.3 4.26 4.26 0 0 1-.59 2.47zm6.23-6.33a3.19 3.19 0 0 0-3 1.86 4.48 4.48 0 0 0-.43 2v.17a4.1 4.1 0 0 0 .95 2.82 3.13 3.13 0 0 0 2.46 1.07 3.3 3.3 0 0 0 1.77-.48 3.19 3.19 0 0 0 1.2-1.36 4.53 4.53 0 0 0 .43-2v-.18a4.11 4.11 0 0 0-.94-2.83 3.13 3.13 0 0 0-2.44-1.07zm2.57 4a3.56 3.56 0 0 1-.71 2.31 2.39 2.39 0 0 1-3.7 0 3.45 3.45 0 0 1-.71-2.24v-.16a3.57 3.57 0 0 1 .71-2.31 2.25 2.25 0 0 1 1.84-.88 2.32 2.32 0 0 1 1.34.4 2.59 2.59 0 0 1 .91 1.12 3.88 3.88 0 0 1 .32 1.6v.16zm3.41-2.65v-1.21h-.82v7.61h.84v-5.23a2.41 2.41 0 0 1 .78-1.28 2.05 2.05 0 0 1 1.33-.44 3.09 3.09 0 0 1 .57 0v-.77a1.4 1.4 0 0 0-.56-.09 2.24 2.24 0 0 0-2.14 1.41zm6.66 5.81a.89.89 0 0 1-.76-.31 1.59 1.59 0 0 1-.23-.94v-5.08h1.58v-.69h-1.58v-1.95h-.8v1.95h-1.4v.69h1.4v5.08a2.36 2.36 0 0 0 .39 1.48 1.5 1.5 0 0 0 1.26.5 2.74 2.74 0 0 0 .9-.12v-.68a5.14 5.14 0 0 1-.76.07zm5.12-7.16a3.19 3.19 0 0 0-3 1.86 4.48 4.48 0 0 0-.43 2v.17a4.1 4.1 0 0 0 .95 2.82 3.13 3.13 0 0 0 2.46 1.07 3.3 3.3 0 0 0 1.77-.48 3.19 3.19 0 0 0 1.2-1.36 4.53 4.53 0 0 0 .43-2v-.18a4.11 4.11 0 0 0-.94-2.83 3.13 3.13 0 0 0-2.44-1.07zm2.57 4a3.56 3.56 0 0 1-.71 2.31 2.39 2.39 0 0 1-3.7 0 3.45 3.45 0 0 1-.71-2.24v-.16a3.57 3.57 0 0 1 .71-2.31 2.25 2.25 0 0 1 1.84-.88 2.32 2.32 0 0 1 1.34.4 2.59 2.59 0 0 1 .91 1.12 3.88 3.88 0 0 1 .32 1.6v.16zm-51.61 10.8h-.7l-.55 2.93h-2.22l.56-2.93h-.7l-.56 2.93h-2.09v.68h2l-.58 3.1h-1.91v.66h1.79l-.54 2.88h.63l.54-2.88h2.21l-.54 2.88h.7l.54-2.88h1.92v-.66h-1.79l.58-3.1h1.74v-.68h-1.61zm-2 6.7h-2.22l.58-3.1h2.22zm10.91 1.77l-.16.74-.2-.8-1.8-5.78h-.72l-1.83 5.82-.17.69-.13-.65-1.61-5.86h-.86l2.21 7.61h.72l1.91-6.03.1-.42.09.41 1.96 6.04h.71l2.22-7.61h-.87l-1.57 5.84zm5.08-4.44a2.29 2.29 0 0 1 3.25-.27 2.06 2.06 0 0 1 .64 1.44h.81a2.73 2.73 0 0 0-.87-2 2.94 2.94 0 0 0-2.07-.75 3.12 3.12 0 0 0-1.72.47 3 3 0 0 0-1.13 1.34 4.76 4.76 0 0 0-.39 2v.25a4.22 4.22 0 0 0 .88 2.8 2.94 2.94 0 0 0 2.37 1 3.2 3.2 0 0 0 1.43-.32 2.72 2.72 0 0 0 1.07-.9 2.39 2.39 0 0 0 .44-1.27h-.81a1.74 1.74 0 0 1-.64 1.28 2.23 2.23 0 0 1-1.47.49 2.11 2.11 0 0 1-1.78-.82 3.64 3.64 0 0 1-.63-2.27v-.25a3.72 3.72 0 0 1 .62-2.22zm9.58-1.54a2.7 2.7 0 0 0-2.38 1.22v-1.08h-.78v10.54h.84v-3.88a2.82 2.82 0 0 0 2.39 1.1 2.51 2.51 0 0 0 2.11-1 4.59 4.59 0 0 0 .79-2.83v-.12a4.68 4.68 0 0 0-.78-2.87 2.53 2.53 0 0 0-2.19-1.08zm1.48 6.33a1.91 1.91 0 0 1-1.66.85 2.49 2.49 0 0 1-1.33-.34 2.24 2.24 0 0 1-.87-1v-3.65a2.22 2.22 0 0 1 2.18-1.46 1.93 1.93 0 0 1 1.67.84 3.92 3.92 0 0 1 .6 2.3 4.26 4.26 0 0 1-.59 2.46zm6.23-6.33a3.19 3.19 0 0 0-3 1.86 4.48 4.48 0 0 0-.43 2v.17a4.1 4.1 0 0 0 .95 2.82 3.13 3.13 0 0 0 2.46 1.07 3.3 3.3 0 0 0 1.77-.48 3.19 3.19 0 0 0 1.2-1.36 4.53 4.53 0 0 0 .43-2v-.18a4.11 4.11 0 0 0-.94-2.83 3.13 3.13 0 0 0-2.44-1.07zm2.57 4a3.56 3.56 0 0 1-.71 2.31 2.39 2.39 0 0 1-3.7 0 3.45 3.45 0 0 1-.71-2.24v-.16a3.57 3.57 0 0 1 .71-2.31 2.25 2.25 0 0 1 1.84-.88 2.32 2.32 0 0 1 1.34.4 2.59 2.59 0 0 1 .91 1.12 3.88 3.88 0 0 1 .32 1.6v.16zm3.41-2.65v-1.23h-.82v7.61h.84v-5.21a2.41 2.41 0 0 1 .78-1.28 2.05 2.05 0 0 1 1.33-.44 3.09 3.09 0 0 1 .57 0v-.77a1.4 1.4 0 0 0-.56-.09 2.24 2.24 0 0 0-2.14 1.41zm6.66 5.77a.89.89 0 0 1-.76-.31 1.59 1.59 0 0 1-.23-.94v-5.08h1.58v-.67h-1.58v-1.95h-.8v1.95h-1.4v.69h1.4v5.08a2.36 2.36 0 0 0 .39 1.48 1.5 1.5 0 0 0 1.26.5 2.74 2.74 0 0 0 .9-.12v-.68a5.13 5.13 0 0 1-.76.05zm5.12-7.12a3.19 3.19 0 0 0-3 1.86 4.48 4.48 0 0 0-.43 2v.17a4.1 4.1 0 0 0 .95 2.82 3.13 3.13 0 0 0 2.46 1.07 3.3 3.3 0 0 0 1.77-.48 3.19 3.19 0 0 0 1.2-1.36 4.53 4.53 0 0 0 .43-2v-.18a4.11 4.11 0 0 0-.94-2.83 3.13 3.13 0 0 0-2.44-1.07zm2.57 4a3.56 3.56 0 0 1-.71 2.31 2.39 2.39 0 0 1-3.7 0 3.45 3.45 0 0 1-.71-2.24v-.16a3.57 3.57 0 0 1 .71-2.31 2.25 2.25 0 0 1 1.84-.88 2.32 2.32 0 0 1 1.34.4 2.59 2.59 0 0 1 .91 1.12 3.88 3.88 0 0 1 .32 1.6v.16zm6.33-.19a11.68 11.68 0 0 0 1.57-2.13 3.41 3.41 0 0 0 .45-1.57 2.62 2.62 0 0 0-.79-2 3.1 3.1 0 0 0-2.2-.74 3.3 3.3 0 0 0-1.64.41 2.8 2.8 0 0 0-1.11 1.12 3.21 3.21 0 0 0-.39 1.58h.84a2.37 2.37 0 0 1 .64-1.72 2.21 2.21 0 0 1 1.67-.66 2.12 2.12 0 0 1 1.57.57 2.07 2.07 0 0 1 .57 1.54 2.77 2.77 0 0 1-.34 1.27 9.15 9.15 0 0 1-1.21 1.66l-3.51 4v.65h6.42v-.71h-5.35zm7.12-6.44a2.71 2.71 0 0 0-2.34 1.11 5.57 5.57 0 0 0-.8 3.27v1.84a5.46 5.46 0 0 0 .83 3.2 2.71 2.71 0 0 0 2.33 1.1 2.68 2.68 0 0 0 2.34-1.12 5.66 5.66 0 0 0 .8-3.29v-1.88a5.37 5.37 0 0 0-.83-3.16 2.72 2.72 0 0 0-2.33-1.07zm2.31 6.25a5 5 0 0 1-.59 2.66 1.9 1.9 0 0 1-1.71.91 1.93 1.93 0 0 1-1.73-.93 5 5 0 0 1-.59-2.68v-2a4.84 4.84 0 0 1 .59-2.6 2.12 2.12 0 0 1 3.45 0 5 5 0 0 1 .57 2.66v2zm2.93-4.85v.78l2.79-1.03v9.23h.84V93.91h-.14l-3.49 1.3zm13.2 3.19a2.69 2.69 0 0 0-2.15-.93 3.27 3.27 0 0 0-1.46.32 2.86 2.86 0 0 0-1.08.9 4.53 4.53 0 0 1 1.17-3 3.86 3.86 0 0 1 2.89-1.08h.1v-.73h-.21a4.43 4.43 0 0 0-3.55 1.54 6.5 6.5 0 0 0-1.25 4.26v.88a4.06 4.06 0 0 0 .92 2.75 3 3 0 0 0 2.39 1.07 2.84 2.84 0 0 0 2.66-1.7 4.22 4.22 0 0 0 .37-1.8 3.62 3.62 0 0 0-.8-2.48zm-.64 4.44a1.92 1.92 0 0 1-1.59.78 2.19 2.19 0 0 1-1.78-.84 3.34 3.34 0 0 1-.69-2.18v-.72a2.28 2.28 0 0 1 .93-1.2 2.59 2.59 0 0 1 1.49-.47 2 2 0 0 1 1.64.73 2.93 2.93 0 0 1 .61 1.94 3.1 3.1 0 0 1-.61 1.96z"/></svg>