<svg id="Printing_layer" data-name="Printing layer" xmlns="http://www.w3.org/2000/svg" viewBox="0 0 250.33 107.12"><defs><style>.cls-1{fill:#ed6b6a}.cls-2{fill:#27688f}</style></defs><title>lettring-color</title><path class="cls-1" d="M54.51.11l-4.84 14.12-.2-14.12h-2.93l-4.85 14.12-.2-14.18h-.92a8.39 8.39 0 0 0-1.94.23 10.07 10.07 0 0 0-3.55 1.62 8 8 0 0 0-1.36 1.23 5.65 5.65 0 0 0-.91 1.41 3.66 3.66 0 0 0-.33 1.51 3 3 0 0 0 .16 1.06 1.63 1.63 0 0 0 .47.69 2 2 0 0 0 .77.38 4.31 4.31 0 0 0 1.06.12.33.33 0 0 0-.05-.16 1.52 1.52 0 0 1-.11-.25 3.12 3.12 0 0 1-.11-.44 4.07 4.07 0 0 1-.05-.71 5.47 5.47 0 0 1 .91-3.22 5.23 5.23 0 0 1 2.53-1.96l.37 15.75h3.32l4.42-11.75.27 11.73h3.32L56.17.11h-1.66zM73.17 8.1a1.88 1.88 0 0 0 .1-.6 2.15 2.15 0 0 0-.1-.65 1.57 1.57 0 0 0-.31-.55 1.54 1.54 0 0 0-.5-.38 1.56 1.56 0 0 0-.69-.15 2.45 2.45 0 0 0-.79.12 4 4 0 0 0-.72.32 4.67 4.67 0 0 0-.66.46l-.62.53.29-1.44h-3.35l-.65 2.94-.34.16a7.19 7.19 0 0 1-.94.31 3.53 3.53 0 0 1-.87.12h-.22q0-3.68-3-3.68a5 5 0 0 0-2.11.42 5.72 5.72 0 0 0-1.63 1.11 6.86 6.86 0 0 0-1.19 1.56 10.6 10.6 0 0 0-.8 1.78 11.11 11.11 0 0 0-.45 1.77 9.67 9.67 0 0 0-.14 1.54 4.56 4.56 0 0 0 .28 1.68 2.91 2.91 0 0 0 .81 1.09 3 3 0 0 0 1.17.63 5.34 5.34 0 0 0 1.48.2 4.34 4.34 0 0 0 2-.48 5.22 5.22 0 0 0 1.68-1.35 7.71 7.71 0 0 0 1.21-2.18 10.87 10.87 0 0 0 .62-2.88 9.22 9.22 0 0 0 2.25-.67l-1.59 7.52h3.32l1.84-8.79a6.74 6.74 0 0 1 .79-.64 1.56 1.56 0 0 1 .89-.24.27.27 0 0 1 .24.11 1 1 0 0 1 .12.28c0 .11.06.23.08.37a1.27 1.27 0 0 0 .13.37.76.76 0 0 0 .26.28.92.92 0 0 0 .5.11 1.67 1.67 0 0 0 .73-.15 1.62 1.62 0 0 0 .52-.39 1.57 1.57 0 0 0 .36-.56zm-12.74.65a1.47 1.47 0 0 0-.26.81 1.36 1.36 0 0 0 .13.61.69.69 0 0 0 .49.36 11.18 11.18 0 0 1-.41 1.89 8.13 8.13 0 0 1-.64 1.52 3.89 3.89 0 0 1-.78 1 1.28 1.28 0 0 1-.84.37 1.7 1.7 0 0 1-.55-.08.71.71 0 0 1-.36-.29 1.43 1.43 0 0 1-.2-.57 5.76 5.76 0 0 1-.06-.93 8.21 8.21 0 0 1 .11-1.28 13.48 13.48 0 0 1 .32-1.42 12.39 12.39 0 0 1 .49-1.4 7.9 7.9 0 0 1 .63-1.21 3.82 3.82 0 0 1 .73-.85 1.24 1.24 0 0 1 .8-.32 1 1 0 0 1 .39.07.57.57 0 0 1 .25.23 1.32 1.32 0 0 1 .16.42 4 4 0 0 1 .08.63 1.2 1.2 0 0 0-.52.44zM83 15.2a.89.89 0 0 1-.74-.27 1 1 0 0 1-.2-.66 2.3 2.3 0 0 1 0-.32 2.54 2.54 0 0 1 .11-.39l2.65-12.45-3.41.46-1.13 5.3v-.05a1 1 0 0 0-.44-.83 2.37 2.37 0 0 0-1.42-.34 4.4 4.4 0 0 0-1.84.38 5.26 5.26 0 0 0-1.49 1 6.93 6.93 0 0 0-1.15 1.46 10.28 10.28 0 0 0-.82 1.73 10.8 10.8 0 0 0-.48 1.8 9.83 9.83 0 0 0-.16 1.69 5.08 5.08 0 0 0 .26 1.73 3.16 3.16 0 0 0 .67 1.12 2.48 2.48 0 0 0 1 .63 3.47 3.47 0 0 0 1.15.19 3.4 3.4 0 0 0 1.06-.16 3.57 3.57 0 0 0 .89-.43 4.29 4.29 0 0 0 .66-.56 6.92 6.92 0 0 0 .6-.71 2.74 2.74 0 0 0 .32.87 2 2 0 0 0 .53.6 2.14 2.14 0 0 0 .71.34 3.15 3.15 0 0 0 .83.11 2.91 2.91 0 0 0 .89-.14 2.33 2.33 0 0 0 .79-.43 2.37 2.37 0 0 0 .58-.74 2.73 2.73 0 0 0 .28-1.06l-.27.1a1.79 1.79 0 0 1-.43.03zm-4.07-2l-.09.36a2.86 2.86 0 0 1-.34.73 2.44 2.44 0 0 1-.46.52 1.9 1.9 0 0 1-.51.32 1.28 1.28 0 0 1-.49.11 2.17 2.17 0 0 1-.36 0 .69.69 0 0 1-.38-.21 1.4 1.4 0 0 1-.3-.53 3.31 3.31 0 0 1-.12-1 8.32 8.32 0 0 1 .1-1.22 11.41 11.41 0 0 1 .78-2.75 6.7 6.7 0 0 1 .64-1.19 3.4 3.4 0 0 1 .77-.94 1.53 1.53 0 0 1 .92-.32 1 1 0 0 1 .44.08.78.78 0 0 1 .28.21 1 1 0 0 1 .15.27 1.54 1.54 0 0 1 .07.24zm56.38-5.64a3 3 0 0 0-.6-1.12 2.18 2.18 0 0 0-.89-.61 3.26 3.26 0 0 0-1.1-.19 3.85 3.85 0 0 0-1.53.28 4.59 4.59 0 0 0-1.16.71l.37-1.73h-3.32l-1.8 8.5c-.08.2-.17.4-.26.58a3.3 3.3 0 0 1-.41.65 1.66 1.66 0 0 1-.51.42 1.4 1.4 0 0 1-.65.15.85.85 0 0 1-.73-.27 1.16 1.16 0 0 1-.2-.7 4 4 0 0 1 .08-.76q.08-.43.2-.94t.27-1.06q.15-.55.26-1.11c.08-.37.15-.73.2-1.09a6.39 6.39 0 0 0 .08-1 3.3 3.3 0 0 0-.19-1.18 2 2 0 0 0-1.35-1.27 3.39 3.39 0 0 0-1-.15 4.06 4.06 0 0 0-.7.07 3.09 3.09 0 0 0-.8.27 3.9 3.9 0 0 0-.86.59 5 5 0 0 0-.85 1 2.79 2.79 0 0 0-.3-.92 2 2 0 0 0-.52-.61 2 2 0 0 0-.7-.34 3.19 3.19 0 0 0-.84-.11 4.21 4.21 0 0 0-.64.05 3.22 3.22 0 0 0-.7.19 3.76 3.76 0 0 0-.73.39 4.13 4.13 0 0 0-.74.67l.25-1.19h-3.32l-1.57 7.39a5.81 5.81 0 0 1-.3.84 3.21 3.21 0 0 1-.42.69 2 2 0 0 1-.52.47 1.18 1.18 0 0 1-.62.17.86.86 0 0 1-.95-1 3 3 0 0 1 0-.37 2.25 2.25 0 0 1 .08-.38l1.65-7.83h-3.32l-.25 1.23v-.12a1 1 0 0 0-.44-.83 2.37 2.37 0 0 0-1.42-.34 4.4 4.4 0 0 0-1.84.38 5.26 5.26 0 0 0-1.49 1 6.93 6.93 0 0 0-1.15 1.46 10.28 10.28 0 0 0-.82 1.73 10.81 10.81 0 0 0-.48 1.8 9.82 9.82 0 0 0-.12 1.27 5.75 5.75 0 0 1-1.82 1.54 5.35 5.35 0 0 1-2.52.61 3.12 3.12 0 0 1-1.38-.26 2.1 2.1 0 0 1-.84-.74 3 3 0 0 1-.43-1.13 8.35 8.35 0 0 1-.12-1.46 17.14 17.14 0 0 1 .18-2.43 21.24 21.24 0 0 1 .49-2.45 17.4 17.4 0 0 1 .76-2.26 10.92 10.92 0 0 1 1-1.87 5.4 5.4 0 0 1 1.1-1.28 2 2 0 0 1 1.24-.47 1.63 1.63 0 0 1 .65.12 1.23 1.23 0 0 1 .44.31 1.14 1.14 0 0 1 .24.45 1.94 1.94 0 0 1 .07.53 2.61 2.61 0 0 1-.09.68 3.19 3.19 0 0 1-.24.62 2.46 2.46 0 0 1-.34.51 1.3 1.3 0 0 1-.39.32 1.43 1.43 0 0 0 .68.5 2.35 2.35 0 0 0 .63.1 1.64 1.64 0 0 0 .75-.16 1.36 1.36 0 0 0 .51-.44 1.9 1.9 0 0 0 .28-.68 4 4 0 0 0 .08-.85 3.08 3.08 0 0 0-.3-1.41 2.59 2.59 0 0 0-.82-1 3.6 3.6 0 0 0-1.23-.55 6.21 6.21 0 0 0-1.5-.17 6.06 6.06 0 0 0-2.08.34 6.42 6.42 0 0 0-1.72.94 7.49 7.49 0 0 0-1.4 1.41 11.34 11.34 0 0 0-1.09 1.74 13.88 13.88 0 0 0-.8 1.93 19.49 19.49 0 0 0-.54 2 17.52 17.52 0 0 0-.31 1.92 16.75 16.75 0 0 0-.1 1.72 9.68 9.68 0 0 0 .31 2.63 4.27 4.27 0 0 0 .93 1.76 3.59 3.59 0 0 0 1.57 1 7.46 7.46 0 0 0 4 .07 7.58 7.58 0 0 0 1.87-.75 7.33 7.33 0 0 0 1.7-1.33 5.58 5.58 0 0 0 .59-.75 4.16 4.16 0 0 0 .2.86 3.16 3.16 0 0 0 .69 1.15 2.48 2.48 0 0 0 1 .63 3.47 3.47 0 0 0 1.15.19 3.29 3.29 0 0 0 1.13-.19 3.81 3.81 0 0 0 .93-.48 4.57 4.57 0 0 0 .75-.68 9 9 0 0 0 .62-.77 2.47 2.47 0 0 0 .7 1.58 2.21 2.21 0 0 0 1.56.53 4.43 4.43 0 0 0 .68-.06 3.65 3.65 0 0 0 .78-.21 4.12 4.12 0 0 0 .83-.45 4.49 4.49 0 0 0 .82-.75l-.32 1.34h3.32l1.56-7.39a6.67 6.67 0 0 1 .32-.83 3.41 3.41 0 0 1 .41-.69 1.88 1.88 0 0 1 .52-.46 1.21 1.21 0 0 1 .63-.17.6.6 0 0 1 .33.08.7.7 0 0 1 .21.23 1 1 0 0 1 .12.32 2.15 2.15 0 0 1 0 .38 2.31 2.31 0 0 1-.07.57l-1.69 8h3.34l1.56-7.39a6.57 6.57 0 0 1 .32-.83 3.48 3.48 0 0 1 .41-.68 1.94 1.94 0 0 1 .5-.46 1.08 1.08 0 0 1 .58-.17q.83 0 .83 1.18a6.46 6.46 0 0 1-.16 1.32q-.16.77-.36 1.59c-.13.55-.25 1.08-.35 1.6a6.82 6.82 0 0 0-.16 1.37 3.33 3.33 0 0 0 .14 1 2.26 2.26 0 0 0 .46.83 2.21 2.21 0 0 0 .83.58 3.3 3.3 0 0 0 1.28.22 4.24 4.24 0 0 0 1-.13 3 3 0 0 0 1.12-.58 4.18 4.18 0 0 0 .49-.47l-1.45 6.81 3.48-.83 1.21-5.73a1.89 1.89 0 0 0 .25.31 1.39 1.39 0 0 0 .38.26 2.33 2.33 0 0 0 .56.18 3.82 3.82 0 0 0 .77.07 4.76 4.76 0 0 0 2-.39 4.87 4.87 0 0 0 1.49-1 5.83 5.83 0 0 0 1.03-1.43 10 10 0 0 0 .68-1.74 11.61 11.61 0 0 0 .37-1.81 14.29 14.29 0 0 0 .11-1.68 5.82 5.82 0 0 0-.23-1.77zm-33.25 5.6a3.17 3.17 0 0 1-.33.89 2.79 2.79 0 0 1-.48.64 2 2 0 0 1-.55.38 1.33 1.33 0 0 1-.55.13 2.17 2.17 0 0 1-.36 0 .69.69 0 0 1-.38-.21 1.4 1.4 0 0 1-.3-.53 3.31 3.31 0 0 1-.12-1 8.32 8.32 0 0 1 .1-1.22 11.41 11.41 0 0 1 .78-2.75 6.7 6.7 0 0 1 .64-1.19 3.4 3.4 0 0 1 .79-.84 1.53 1.53 0 0 1 .92-.32 1 1 0 0 1 .46.1.88.88 0 0 1 .29.24.93.93 0 0 1 .15.29.9.9 0 0 1 0 .25zm30.24-2.73a11.75 11.75 0 0 1-.23 1.36 10.35 10.35 0 0 1-.41 1.34 5.24 5.24 0 0 1-.61 1.17 3.11 3.11 0 0 1-.83.82 1.93 1.93 0 0 1-1.08.31.94.94 0 0 1-.6-.17.83.83 0 0 1-.28-.36l1.36-6.45a2.48 2.48 0 0 1 .76-.85 1.51 1.51 0 0 1 .83-.29 1.46 1.46 0 0 1 .36.05.76.76 0 0 1 .38.24 1.56 1.56 0 0 1 .3.57 3.5 3.5 0 0 1 .12 1 11.25 11.25 0 0 1-.06 1.26z"/><path class="cls-2" d="M45.76 34.12a20.08 20.08 0 0 0 1.6-7.72 16.43 16.43 0 0 0-1.1-6 13.66 13.66 0 0 0-3.45-5.06 17.18 17.18 0 0 0-5.93-3.53 24.79 24.79 0 0 0-8.55-1.25 29.45 29.45 0 0 0-6.8.81 35.14 35.14 0 0 0-12.36 5.61 27.92 27.92 0 0 0-4.77 4.29 19.71 19.71 0 0 0-3.23 4.93 12.83 12.83 0 0 0-1.16 5.28 10.44 10.44 0 0 0 .57 3.7 5.69 5.69 0 0 0 1.65 2.38 6.74 6.74 0 0 0 2.7 1.32 15 15 0 0 0 3.7.41 1.16 1.16 0 0 0-.18-.55 5.59 5.59 0 0 1-.37-.89 10.83 10.83 0 0 1-.37-1.54 14.29 14.29 0 0 1-.18-2.5 22.62 22.62 0 0 1 1.42-8.25 16.6 16.6 0 0 1 4.1-6.17 18 18 0 0 1 6.55-3.83 26.92 26.92 0 0 1 8.8-1.34 11 11 0 0 1 4.55.87 8.23 8.23 0 0 1 3.11 2.38 10 10 0 0 1 1.77 3.51 15.28 15.28 0 0 1 .57 4.24 21.65 21.65 0 0 1-.47 4.43 24.86 24.86 0 0 1-3.51 8.49 18.53 18.53 0 0 1-2.82 3.42 15.1 15.1 0 0 1-3.43 2.41 10.06 10.06 0 0 1-3.88 1.1L30 18.12 18.09 19.7 7.17 71.03h11.55l4.92-23h.43a23.38 23.38 0 0 0 17.08-7 21.86 21.86 0 0 0 4.61-6.91zm120.59 1.18q-.35.59-.93 1.46a15.41 15.41 0 0 1-1.3 1.69 11 11 0 0 1-1.62 1.5 5 5 0 0 1-1.91.91q-.71-10.88-10.24-10.87a17.64 17.64 0 0 0-7.41 1.48 19.43 19.43 0 0 0-5.65 3.88 23.71 23.71 0 0 0-4.1 5.46 36.63 36.63 0 0 0-2.72 6.25 39.69 39.69 0 0 0-1.52 6.21c-.19 1.19-.3 2.29-.38 3.33h-2.21a14.23 14.23 0 0 1-1.22 2.86 10.55 10.55 0 0 1-1.69 2.26 7.4 7.4 0 0 1-2.07 1.48 5.34 5.34 0 0 1-2.3.53 3.87 3.87 0 0 1-2.48-.65 2.91 2.91 0 0 1-.79-2.34q0-.63.06-1.28a6.88 6.88 0 0 1 .26-1.32l5.16-24.19h4.88l.63-3.23h-4.85l2.76-12.76-11.96 1.6-2.44 11.15h-2.64l-.28 1.34a5.57 5.57 0 0 0-1.21-.83 5.44 5.44 0 0 0-2.42-.51 8.68 8.68 0 0 0-2.76.43 13.82 13.82 0 0 0-2.5 1.12 16.74 16.74 0 0 0-2.3 1.6q-1.1.91-2.17 1.85l1-5H83.42l-2.15 10.14c-.5.24-1 .47-1.52.67a25.14 25.14 0 0 1-3.29 1.04 12.49 12.49 0 0 1-3.05.41h-.49a1 1 0 0 1-.37-.08v-.03q0-12.88-10.36-12.88a17.54 17.54 0 0 0-7.37 1.48 20 20 0 0 0-5.65 3.88 24 24 0 0 0-4.18 5.46 37.16 37.16 0 0 0-2.8 6.25 38.82 38.82 0 0 0-1.58 6.21 33.75 33.75 0 0 0-.49 5.38 16 16 0 0 0 1 5.89 10.19 10.19 0 0 0 2.68 3.94 10.47 10.47 0 0 0 4.1 2.21 18.6 18.6 0 0 0 5.18.69 15.16 15.16 0 0 0 7-1.69 18.27 18.27 0 0 0 5.87-4.85 27 27 0 0 0 4.24-7.64 38 38 0 0 0 2.15-10.09 32 32 0 0 0 8.12-2.54L74.86 71h11.62l6.46-30.65a23.55 23.55 0 0 1 2.76-2.23 5.46 5.46 0 0 1 3.11-.85.94.94 0 0 1 .85.39 3.43 3.43 0 0 1 .41 1q.16.59.3 1.28a4.63 4.63 0 0 0 .45 1.28 2.64 2.64 0 0 0 .93 1 3.23 3.23 0 0 0 1.75.39 5.85 5.85 0 0 0 2.56-.53 5.71 5.71 0 0 0 1.83-1.36 5.49 5.49 0 0 0 .44-.61l-3.5 16.45q-.32 1.54-.47 2.86a20.82 20.82 0 0 0-.16 2.42 12.65 12.65 0 0 0 .67 4.37 8.28 8.28 0 0 0 1.83 3 7.05 7.05 0 0 0 2.74 1.73 10.21 10.21 0 0 0 3.39.55 17.17 17.17 0 0 0 2.42-.2 14.21 14.21 0 0 0 2.86-.75 15.85 15.85 0 0 0 6.21-4.25 23.48 23.48 0 0 0 2.91-4.06 27.75 27.75 0 0 0 1.31-2.57 15 15 0 0 0 .93 4.83 10.17 10.17 0 0 0 2.68 3.94 10.46 10.46 0 0 0 4.1 2.21 18.6 18.6 0 0 0 5.18.69 15 15 0 0 0 7.14-1.77 18.36 18.36 0 0 0 5.87-5 27.4 27.4 0 0 0 4.16-8 40.59 40.59 0 0 0 2-10.48 11 11 0 0 0 2.86-2.19 22.78 22.78 0 0 0 2.25-2.8 27.24 27.24 0 0 0 1.77-3l1.44-2.82h-2.56zM64.09 41.15a5.08 5.08 0 0 0-.69 2.78 4.82 4.82 0 0 0 .45 2.15 2.41 2.41 0 0 0 1.71 1.24 39.48 39.48 0 0 1-1.39 6.61 28 28 0 0 1-2.23 5.32 13.46 13.46 0 0 1-2.77 3.55 4.48 4.48 0 0 1-2.94 1.3 5.9 5.9 0 0 1-1.93-.28 2.52 2.52 0 0 1-1.28-1 5.08 5.08 0 0 1-.71-2 20 20 0 0 1-.22-3.27 28.5 28.5 0 0 1 .39-4.47 44 44 0 0 1 1.1-5 41.76 41.76 0 0 1 1.71-4.91 27.32 27.32 0 0 1 2.2-4.24 13.28 13.28 0 0 1 2.54-3 4.31 4.31 0 0 1 2.8-1.12 3.36 3.36 0 0 1 1.36.24 2 2 0 0 1 .89.81 4.78 4.78 0 0 1 .55 1.46 14.2 14.2 0 0 1 .29 2.24 4.15 4.15 0 0 0-1.83 1.59zm45.18-5.35a7.32 7.32 0 0 0-.28-1.32 5.8 5.8 0 0 0-.24-.55h.92zm44.47 11.52a42.4 42.4 0 0 1-1.4 6.62 28.15 28.15 0 0 1-2.15 5.32 13.33 13.33 0 0 1-2.66 3.55 4.35 4.35 0 0 1-2.9 1.3 5.89 5.89 0 0 1-1.93-.28 2.52 2.52 0 0 1-1.28-1 5.06 5.06 0 0 1-.71-2 20 20 0 0 1-.22-3.27 29.91 29.91 0 0 1 .37-4.47 44.58 44.58 0 0 1 2.72-9.89 26 26 0 0 1 2.15-4.24 12.91 12.91 0 0 1 2.52-3 4.26 4.26 0 0 1 2.76-1.12 2.46 2.46 0 0 1 2.19 1 7.85 7.85 0 0 1 .89 3.6q-2.29 1.1-2.29 4.21.01 2.91 1.94 3.66z"/><path class="cls-1" d="M171.17 66.11a5.37 5.37 0 0 1 .37 1.79 3.17 3.17 0 0 1-.32 1.43 3.42 3.42 0 0 1-.85 1.1 4 4 0 0 1-1.23.71 4.22 4.22 0 0 1-1.46.25 5.53 5.53 0 0 1-1.39-.18l-1.43-.39q-.73-.21-1.5-.39a6.63 6.63 0 0 0-3.1 0 7.11 7.11 0 0 0-1.67.65h-.12a5.65 5.65 0 0 1-.17-1.35 5 5 0 0 1 .43-2 8.85 8.85 0 0 1 1.1-1.83 17.94 17.94 0 0 1 1.55-1.75l1.76-1.74q.89-.87 1.76-1.77a15.64 15.64 0 0 0 1.54-1.86 9.59 9.59 0 0 0 1.08-2 6 6 0 0 0 .41-2.21 8 8 0 0 0-.12-1.43 3.57 3.57 0 0 0-.39-1.13 2.09 2.09 0 0 0-.68-.74 1.73 1.73 0 0 0-1-.27 2.31 2.31 0 0 0-.93.18 2.1 2.1 0 0 0-.72.5 2.29 2.29 0 0 0-.46.75 2.45 2.45 0 0 0-.17.91 3.66 3.66 0 0 0 .41 1.79 2.78 2.78 0 0 0 1 1.08v.11a4.06 4.06 0 0 1-1.07.71 2.7 2.7 0 0 1-1.11.26 1.71 1.71 0 0 1-.8-.2 1.9 1.9 0 0 1-.66-.58 3 3 0 0 1-.45-.94 4.42 4.42 0 0 1-.17-1.27 4.23 4.23 0 0 1 .39-1.74 4.94 4.94 0 0 1 1.15-1.59 5.86 5.86 0 0 1 1.89-1.15 7.12 7.12 0 0 1 2.61-.44 6.77 6.77 0 0 1 2.25.36 5.14 5.14 0 0 1 1.77 1 4.64 4.64 0 0 1 1.16 1.65 5.61 5.61 0 0 1 .42 2.21 5.19 5.19 0 0 1-.36 1.94 7.43 7.43 0 0 1-1 1.72 11.77 11.77 0 0 1-1.41 1.56q-.8.75-1.68 1.45t-1.79 1.39q-.91.68-1.73 1.39a18.37 18.37 0 0 0-1.5 1.43 7.52 7.52 0 0 0-1.12 1.53 5.78 5.78 0 0 1 .9-.17h.86a9.25 9.25 0 0 1 1.37.1c.44.07.86.14 1.26.22l1.15.23a5.82 5.82 0 0 0 1 .1 3.23 3.23 0 0 0 1.4-.32 4.73 4.73 0 0 0 1.41-1.15zm8.15 5.22a6.26 6.26 0 0 1-2.81-.56 4.59 4.59 0 0 1-1.79-1.53 6.3 6.3 0 0 1-.94-2.29 13.77 13.77 0 0 1-.27-2.82 23.17 23.17 0 0 1 .32-3.86 19.89 19.89 0 0 1 .92-3.53 15.88 15.88 0 0 1 1.47-3 11.17 11.17 0 0 1 2-2.36 8.51 8.51 0 0 1 2.38-1.53 7 7 0 0 1 2.76-.55 5.68 5.68 0 0 1 2.47.5 4.62 4.62 0 0 1 1.73 1.41 6.16 6.16 0 0 1 1 2.19 11.36 11.36 0 0 1 .33 2.84q0 1.06-.12 2.26a24.82 24.82 0 0 1-.37 2.46 24.42 24.42 0 0 1-.65 2.53 17.92 17.92 0 0 1-1 2.42 14.13 14.13 0 0 1-1.29 2.15 8.93 8.93 0 0 1-1.65 1.73 7.51 7.51 0 0 1-2 1.15 6.85 6.85 0 0 1-2.49.39zm4-20.35a2.06 2.06 0 0 0-1.36.58 6.67 6.67 0 0 0-1.27 1.59 15.17 15.17 0 0 0-1.13 2.36 23.12 23.12 0 0 0-.89 2.89 30.48 30.48 0 0 0-.59 3.19 24.59 24.59 0 0 0-.22 3.25q0 .82.08 1.59a6.18 6.18 0 0 0 .28 1.38 2.46 2.46 0 0 0 .57 1 1.29 1.29 0 0 0 1 .37 2.11 2.11 0 0 0 1.37-.57 6.13 6.13 0 0 0 1.25-1.56 14.09 14.09 0 0 0 1.07-2.34 23.76 23.76 0 0 0 .83-2.9 31.22 31.22 0 0 0 .53-3.24 30.1 30.1 0 0 0 .19-3.36 12.53 12.53 0 0 0-.1-1.6 6.69 6.69 0 0 0-.3-1.34 2.58 2.58 0 0 0-.52-.92 1 1 0 0 0-.84-.37zm6.06 20.05l3.8-18h-2.73l.34-1.32c.39 0 .83 0 1.32-.06a9.48 9.48 0 0 0 1.63-.29 15.3 15.3 0 0 0 2-.68 17.53 17.53 0 0 0 2.39-1.23l-4.59 21.56h-4.15zm18.06-13.1a4.68 4.68 0 0 1 1.8.34 3.78 3.78 0 0 1 1.39 1 4.61 4.61 0 0 1 .9 1.57 6.29 6.29 0 0 1 .32 2.09 8.12 8.12 0 0 1-.27 2.1 8.89 8.89 0 0 1-.77 1.95 8.55 8.55 0 0 1-1.2 1.69 8.29 8.29 0 0 1-1.54 1.33 7.42 7.42 0 0 1-1.81.88 6.38 6.38 0 0 1-2 .32 7.25 7.25 0 0 1-2.62-.43 4.26 4.26 0 0 1-1.84-1.34 6 6 0 0 1-1.08-2.36 14.82 14.82 0 0 1-.35-3.47 19.44 19.44 0 0 1 .36-3.78 18.05 18.05 0 0 1 1-3.38 14.35 14.35 0 0 1 1.56-2.86 11.23 11.23 0 0 1 2-2.2 8.85 8.85 0 0 1 2.41-1.41 7.38 7.38 0 0 1 2.69-.5 5.94 5.94 0 0 1 1.72.23 4 4 0 0 1 1.32.66 2.93 2.93 0 0 1 .84 1 3 3 0 0 1 .29 1.34 3.25 3.25 0 0 1-.16 1 2.76 2.76 0 0 1-.44.84 2.06 2.06 0 0 1-.67.56 1.77 1.77 0 0 1-.84.2 1.66 1.66 0 0 1-.89-.25 1.41 1.41 0 0 1-.58-.66 1.58 1.58 0 0 0 .7-.71 2.11 2.11 0 0 0 .24-1 2 2 0 0 0-.09-.6 1.47 1.47 0 0 0-.28-.52 1.4 1.4 0 0 0-.47-.36 1.53 1.53 0 0 0-.66-.13 2.77 2.77 0 0 0-1.76.72 7.57 7.57 0 0 0-1.63 2 15.58 15.58 0 0 0-1.35 3 22.13 22.13 0 0 0-.9 3.8h.1a3.83 3.83 0 0 1 1.7-2 5.51 5.51 0 0 1 2.86-.66zm-4.84 6.8a9.9 9.9 0 0 0 .16 1.93 4.27 4.27 0 0 0 .46 1.3 1.85 1.85 0 0 0 .72.73 1.92 1.92 0 0 0 2.14-.23 4.27 4.27 0 0 0 1.06-1.24 7.4 7.4 0 0 0 .76-1.88 9.1 9.1 0 0 0 .29-2.35 4.9 4.9 0 0 0-.18-1.41 2.61 2.61 0 0 0-.48-.94 1.75 1.75 0 0 0-.72-.52 2.58 2.58 0 0 0-.93-.16 3.1 3.1 0 0 0-1.51.34 2.75 2.75 0 0 0-1 1 4.46 4.46 0 0 0-.58 1.5 9.69 9.69 0 0 0-.19 1.93z"/><path class="cls-2" d="M163.95 84.02h-2.21l-.57 2.88h-.7l.54-2.88h-1.79v-.66h1.95l.58-3.1h-2v-.7h2.09l.56-2.93h.77l-.6 2.93h2.22l.56-2.93h.7l-.56 2.93h1.61v.68h-1.74l-.58 3.1h1.79V84h-1.92l-.54 2.88h-.7zm-2.09-.66h2.21l.58-3.1h-2.22zm8.09 1.79l.13.66.17-.69 1.83-5.82h.72l1.81 5.78.2.8.16-.74 1.56-5.84h.87l-2.23 7.6h-.72l-2-6-.09-.42-.09.42-1.92 6h-.72l-2.21-7.61h.87zm11.85 1.18a2.23 2.23 0 0 0 1.47-.49 1.74 1.74 0 0 0 .64-1.28h.81a2.39 2.39 0 0 1-.44 1.27 2.72 2.72 0 0 1-1.07.9 3.2 3.2 0 0 1-1.43.32 2.94 2.94 0 0 1-2.37-1 4.22 4.22 0 0 1-.88-2.8V83a4.76 4.76 0 0 1 .39-2 3 3 0 0 1 1.13-1.34 3.12 3.12 0 0 1 1.72-.47 2.94 2.94 0 0 1 2.07.75 2.73 2.73 0 0 1 .87 2h-.81a2 2 0 0 0-2.12-2 2.1 2.1 0 0 0-1.77.82 3.72 3.72 0 0 0-.63 2.31v.25a3.64 3.64 0 0 0 .63 2.27 2.11 2.11 0 0 0 1.79.74zm10.73-3.16a4.59 4.59 0 0 1-.79 2.83 2.51 2.51 0 0 1-2.11 1 2.82 2.82 0 0 1-2.39-1.1v3.88h-.84V79.29h.77v1.08a2.7 2.7 0 0 1 2.38-1.22 2.53 2.53 0 0 1 2.14 1 4.68 4.68 0 0 1 .78 2.87v.12zm-.84-.15a3.92 3.92 0 0 0-.6-2.3 1.93 1.93 0 0 0-1.67-.84 2.22 2.22 0 0 0-2.18 1.46v3.65a2.24 2.24 0 0 0 .87 1 2.49 2.49 0 0 0 1.33.34 1.91 1.91 0 0 0 1.66-.85 4.26 4.26 0 0 0 .59-2.45zm2.24-.04a4.48 4.48 0 0 1 .43-2 3.19 3.19 0 0 1 3-1.86 3.13 3.13 0 0 1 2.46 1.07 4.11 4.11 0 0 1 .94 2.83v.18a4.53 4.53 0 0 1-.43 2 3.19 3.19 0 0 1-1.2 1.36 3.3 3.3 0 0 1-1.77.48 3.13 3.13 0 0 1-2.46-1.07 4.1 4.1 0 0 1-.95-2.82v-.17zm.84.23a3.45 3.45 0 0 0 .71 2.24 2.39 2.39 0 0 0 3.7 0 3.56 3.56 0 0 0 .71-2.31v-.16a3.88 3.88 0 0 0-.32-1.6 2.59 2.59 0 0 0-.91-1.12 2.32 2.32 0 0 0-1.34-.4 2.25 2.25 0 0 0-1.84.88 3.57 3.57 0 0 0-.71 2.31v.16zm11.21-3.2a3.09 3.09 0 0 0-.57 0 2.05 2.05 0 0 0-1.33.44 2.41 2.41 0 0 0-.78 1.28v5.23h-.84v-7.61h.82v1.21a2.24 2.24 0 0 1 2.15-1.35 1.4 1.4 0 0 1 .56.09zm2.99-2.67v1.95h1.58v.69h-1.58v5.08a1.59 1.59 0 0 0 .23.94.89.89 0 0 0 .76.31 5.14 5.14 0 0 0 .68-.07v.68a2.74 2.74 0 0 1-.9.12 1.5 1.5 0 0 1-1.26-.5 2.36 2.36 0 0 1-.39-1.48v-5.08h-1.4v-.69h1.48v-1.95h.84zm2.72 5.64a4.48 4.48 0 0 1 .43-2 3.19 3.19 0 0 1 3-1.86 3.13 3.13 0 0 1 2.46 1.07 4.11 4.11 0 0 1 .94 2.83v.18a4.53 4.53 0 0 1-.43 2 3.19 3.19 0 0 1-1.2 1.36 3.3 3.3 0 0 1-1.77.48 3.13 3.13 0 0 1-2.46-1.07 4.1 4.1 0 0 1-.95-2.82v-.17zm.84.23a3.45 3.45 0 0 0 .71 2.24 2.39 2.39 0 0 0 3.7 0 3.56 3.56 0 0 0 .71-2.31v-.16a3.88 3.88 0 0 0-.32-1.6 2.59 2.59 0 0 0-.91-1.12 2.32 2.32 0 0 0-1.34-.4 2.25 2.25 0 0 0-1.84.88 3.57 3.57 0 0 0-.71 2.31v.16zm-48.58 18.1h-2.21l-.57 2.88h-.7l.54-2.88h-1.79v-.66h1.95l.58-3.1h-2v-.68h2.09l.56-2.93h.77l-.56 2.93h2.22l.56-2.93h.7l-.56 2.93h1.61v.69h-1.74l-.58 3.1h1.79v.66h-1.92l-.54 2.88h-.7zm-2.09-.66h2.21l.58-3.1h-2.22zm8.09 1.79l.13.66.17-.69 1.82-5.85h.72l1.81 5.78.2.8.16-.74 1.56-5.84h.87l-2.22 7.63h-.72l-2-6-.09-.42-.09.42-1.92 6h-.72l-2.16-7.63h.87zm11.85 1.18a2.23 2.23 0 0 0 1.47-.49 1.74 1.74 0 0 0 .64-1.28h.81a2.39 2.39 0 0 1-.44 1.27 2.72 2.72 0 0 1-1.07.9 3.2 3.2 0 0 1-1.43.32 2.94 2.94 0 0 1-2.37-1 4.22 4.22 0 0 1-.88-2.8v-.25a4.76 4.76 0 0 1 .39-2 3 3 0 0 1 1.13-1.34 3.12 3.12 0 0 1 1.72-.47 2.94 2.94 0 0 1 2.07.75 2.73 2.73 0 0 1 .87 2h-.81a2 2 0 0 0-2.12-2 2.1 2.1 0 0 0-1.77.82 3.72 3.72 0 0 0-.63 2.31v.2a3.64 3.64 0 0 0 .63 2.27 2.11 2.11 0 0 0 1.79.79zm10.73-3.16a4.59 4.59 0 0 1-.79 2.83 2.51 2.51 0 0 1-2.11 1 2.82 2.82 0 0 1-2.39-1.1v3.88h-.84V96.56h.77v1.08a2.7 2.7 0 0 1 2.38-1.22 2.53 2.53 0 0 1 2.14 1 4.68 4.68 0 0 1 .78 2.87v.12zm-.84-.15a3.92 3.92 0 0 0-.6-2.3 1.93 1.93 0 0 0-1.67-.84 2.22 2.22 0 0 0-2.18 1.46v3.65a2.24 2.24 0 0 0 .87 1 2.49 2.49 0 0 0 1.33.34 1.91 1.91 0 0 0 1.66-.85 4.26 4.26 0 0 0 .59-2.45zm2.24-.04a4.48 4.48 0 0 1 .43-2 3.19 3.19 0 0 1 3-1.86 3.13 3.13 0 0 1 2.46 1.07 4.11 4.11 0 0 1 .94 2.83v.18a4.53 4.53 0 0 1-.43 2 3.19 3.19 0 0 1-1.2 1.36 3.3 3.3 0 0 1-1.77.48 3.13 3.13 0 0 1-2.46-1.07 4.1 4.1 0 0 1-.95-2.82v-.17zm.84.23a3.45 3.45 0 0 0 .71 2.24 2.39 2.39 0 0 0 3.7 0 3.56 3.56 0 0 0 .71-2.31v-.16a3.88 3.88 0 0 0-.32-1.6 2.59 2.59 0 0 0-.91-1.12 2.32 2.32 0 0 0-1.34-.4 2.25 2.25 0 0 0-1.84.88 3.57 3.57 0 0 0-.71 2.31v.16zm11.21-3.2a3.09 3.09 0 0 0-.57 0 2.05 2.05 0 0 0-1.33.44 2.41 2.41 0 0 0-.78 1.28v5.23h-.84v-7.69h.82v1.21a2.24 2.24 0 0 1 2.15-1.35 1.4 1.4 0 0 1 .56.09zm2.99-2.67v1.93h1.58v.69h-1.58v5.08a1.59 1.59 0 0 0 .23.94.89.89 0 0 0 .76.31 5.14 5.14 0 0 0 .68-.07v.68a2.74 2.74 0 0 1-.9.12 1.5 1.5 0 0 1-1.26-.5 2.36 2.36 0 0 1-.39-1.48v-5.08h-1.4v-.69h1.48v-1.95h.84zm2.72 5.64a4.48 4.48 0 0 1 .43-2 3.19 3.19 0 0 1 3-1.86 3.13 3.13 0 0 1 2.46 1.07 4.11 4.11 0 0 1 .94 2.83v.18a4.53 4.53 0 0 1-.43 2 3.19 3.19 0 0 1-1.2 1.36 3.3 3.3 0 0 1-1.77.48 3.13 3.13 0 0 1-2.46-1.07 4.1 4.1 0 0 1-.95-2.82v-.17zm.84.23a3.45 3.45 0 0 0 .71 2.24 2.39 2.39 0 0 0 3.7 0 3.56 3.56 0 0 0 .71-2.31v-.16a3.88 3.88 0 0 0-.32-1.6 2.59 2.59 0 0 0-.91-1.12 2.32 2.32 0 0 0-1.34-.4 2.25 2.25 0 0 0-1.84.88 3.57 3.57 0 0 0-.71 2.31v.16zm13.97 3.69h-6.42v-.63l3.51-4a9.16 9.16 0 0 0 1.21-1.66 2.77 2.77 0 0 0 .34-1.27 2.07 2.07 0 0 0-.57-1.54 2.12 2.12 0 0 0-1.57-.57 2.21 2.21 0 0 0-1.67.66 2.37 2.37 0 0 0-.64 1.72h-.84a3.22 3.22 0 0 1 .39-1.58 2.8 2.8 0 0 1 1.11-1.12 3.3 3.3 0 0 1 1.64-.41 3.1 3.1 0 0 1 2.2.74 2.62 2.62 0 0 1 .79 2 3.41 3.41 0 0 1-.45 1.57 11.68 11.68 0 0 1-1.57 2.13l-2.79 3.25h5.38v.71zm7.75-4.27a5.66 5.66 0 0 1-.8 3.29 2.68 2.68 0 0 1-2.34 1.12 2.71 2.71 0 0 1-2.33-1.1 5.46 5.46 0 0 1-.83-3.2v-1.84a5.57 5.57 0 0 1 .8-3.27 3 3 0 0 1 4.66 0 5.37 5.37 0 0 1 .83 3.16v1.88zm-.84-1.84a5 5 0 0 0-.57-2.66 2.12 2.12 0 0 0-3.45 0 4.84 4.84 0 0 0-.59 2.6v2a5 5 0 0 0 .59 2.68 1.93 1.93 0 0 0 1.73.93 1.9 1.9 0 0 0 1.71-.91 5 5 0 0 0 .59-2.66v-2zm6.56 6.11h-.8v-9.23l-2.79 1v-.79l3.49-1.29h.14v10.28zm9.04-10.32v.69h-.1a3.86 3.86 0 0 0-2.89 1.08 4.53 4.53 0 0 0-1.17 3 2.86 2.86 0 0 1 1.08-.9 3.27 3.27 0 0 1 1.46-.32 2.69 2.69 0 0 1 2.15.93 3.62 3.62 0 0 1 .8 2.44 4.22 4.22 0 0 1-.37 1.8 2.84 2.84 0 0 1-2.66 1.7 3 3 0 0 1-2.39-1.07 4.06 4.06 0 0 1-.92-2.75v-.84a6.5 6.5 0 0 1 1.25-4.26 4.43 4.43 0 0 1 3.55-1.54h.21zm-1.75 4.33a2.59 2.59 0 0 0-1.49.47 2.28 2.28 0 0 0-.93 1.2v.69a3.34 3.34 0 0 0 .69 2.18 2.19 2.19 0 0 0 1.78.84 1.92 1.92 0 0 0 1.59-.78 3.1 3.1 0 0 0 .61-2 2.93 2.93 0 0 0-.61-1.94 2 2 0 0 0-1.64-.66z"/></svg>