<svg xmlns="http://www.w3.org/2000/svg" viewBox="0 0 550 550"><style>.st0{fill:#fff}.st1{fill:#bdd1dd}.st2{fill:#ff6d63}.st3{fill:#24648e}</style><g id="Logo_com_reserva"><path class="st0" d="M469.7 204.7c-2.2-6.6-4.2-12.9-4.7-17.2-.5-4.3 0-10.8.5-17.8.8-11.4 1.7-23.2-1.2-30.9-2.9-7.7-11.4-15.9-19.6-23.9-5-4.9-9.7-9.5-12.2-13-2.4-3.5-5.1-9.6-7.9-16-4.6-10.5-9.3-21.4-15.4-26.8-2.1-1.9-4.9-3.5-8.1-5h.4c1.3 0 2.3-.5 3.2-1.4 1-.9 1.3-2.2 1.3-3.6v-7.8c0-2.7-1.9-4.9-4.5-5l-47.6-2.2c-1.4-1.1-2.9-2.3-4.4-3.5-8.9-7.2-18.1-14.6-26.1-16.5-2-.5-4.4-.8-7.1-.8-7 0-15.5 1.7-23.7 3.3-6.9 1.3-13.3 2.6-17.6 2.6-4.3 0-10.8-1.3-17.6-2.6-8.2-1.6-16.6-3.3-23.7-3.3-2.7 0-5.1.2-7.1.8-8 2-17.2 9.4-26.1 16.5-1.5 1.2-2.9 2.3-4.3 3.4L148 36.3c-2.7.1-5 2.4-5 5v7.8c0 1.4.8 2.7 1.8 3.6.9.9 2.3 1.4 3.6 1.4h.5c-3.2 1.5-6 3.1-8.1 5-6.1 5.4-10.9 16.3-15.4 26.8-2.8 6.4-5.4 12.4-7.9 16-2.4 3.5-7.2 8.1-12.2 13-8.2 8-16.7 16.3-19.6 23.9-2.9 7.7-2 19.5-1.2 30.9.5 7 1 13.6.5 17.8-.5 4.3-2.6 10.6-4.7 17.2-3.5 10.9-7.2 22.1-6.2 30.3 1 8.1 7.2 18.2 13.3 27.9 3.7 5.9 7.2 11.5 8.7 15.6 1.5 4 2.6 10.5 3.8 17.4 1.9 11.3 3.9 22.9 8.6 29.7 4.7 6.7 14.9 12.7 24.7 18.5 6 3.5 11.7 6.9 14.9 9.7 3.2 2.9 7.2 8.1 11.5 13.7 6.9 9.1 14.1 18.5 21.4 22.3 7.3 3.8 19.1 4.4 30.5 4.9 7 .3 13.6.7 17.8 1.7 4.2 1 10.2 3.8 16.5 6.8 10.4 4.8 21.1 9.8 29.3 9.8s18.9-5 29.3-9.8c6.3-2.9 12.3-5.7 16.5-6.8 4.2-1 10.8-1.3 17.8-1.7 11.4-.6 23.2-1.1 30.5-4.9 7.3-3.8 14.4-13.2 21.4-22.3 4.2-5.6 8.2-10.8 11.5-13.6 3.2-2.9 8.9-6.2 14.9-9.7 9.9-5.8 20.1-11.8 24.7-18.5 4.7-6.7 6.7-18.4 8.6-29.7 1.2-6.9 2.3-13.4 3.8-17.4 1.5-4 5-9.6 8.7-15.6 6-9.7 12.3-19.8 13.3-27.9.8-8.2-2.8-19.5-6.4-30.4z"/><path class="st1" d="M346.3 213.1s-14.6-7.3-41.5-21.3c-23.2-12-29.9-20.5-29.9-20.5s-6.7 8.5-29.9 20.5c-26.9 14-41.5 21.3-41.5 21.3s-8.4-9.8-19.6-32.8c-3.7 10.3-5.7 21.3-5.7 32.9 0 53.4 43.3 96.8 96.8 96.8 53.4 0 96.8-43.3 96.8-96.8 0-11.6-2-22.7-5.8-33-11.2 23.1-19.7 32.9-19.7 32.9z"/><path class="st2" d="M338.3 394.7c-7 .3-13.4.7-17.6 1.7-4.2 1-10.1 3.8-16.4 6.8-10.4 4.8-21.1 9.8-29.3 9.8s-18.9-5-29.3-9.8c-6.3-2.9-12.3-5.7-16.5-6.8-4.2-1-11-1.3-18-1.7-6.5-.3-13.2-.6-19.2-1.6v143l82.5-49.4 82.5 49.4v-143c-6 1-12.2 1.3-18.7 1.6z"/><path class="st3" d="M271.5 28h5c1.9 0 3.6 1.2 4.4 2.8l64.5 3c-8.1-6.5-16.6-13.2-23.2-14.8-11.5-2.8-35.4 5.3-47.2 5.3-11.9 0-35.7-8.1-47.2-5.3-6.6 1.6-15.1 8.3-23.1 14.7l62.4-2.9c.8-1.6 2.5-2.8 4.4-2.8zm94.6 278.4c.3.8.7 1.6 1.1 2.3s.9 1.5 1.4 2.1c.5.7 1 1.2 1.4 1.7.5.5.9.8 1.2 1.1.3.2.7.4.9.4.3.1.6 0 .8-.1s.5-.3.8-.6c.3-.3.5-.8.6-1.5s-.1-1.4-.3-2.2c-.2-.8-.6-1.7-1.1-2.6-.5-.9-1.1-1.9-1.8-2.8-.4.2-.7.3-1 .2-.3-.1-.6-.3-.9-.6-.4-.4-.6-.8-.7-1.2-.1-.4-.1-.8.1-1.2-.3-.3-.6-.5-.9-.7-.3-.2-.5-.3-.7-.3h-.6c-.2.1-.4.2-.6.4-.3.3-.5.8-.6 1.4s0 1.2.2 1.9c.1.7.4 1.5.7 2.3zm47.4-89.4c-.9-.6-2-1.1-3.2-1.6-1.2-.5-2.5-.9-4-1.3s-2.9-.7-4.5-.9c-1.5-.2-3.1-.4-4.6-.5H395c-.7 0-1.3.2-1.9.3-.5.2-1 .4-1.3.7-.3.3-.5.6-.5 1 0 .6.2 1.3.7 1.9.5.6 1.2 1.3 2.1 1.9s2 1.2 3.2 1.7c1.2.5 2.5 1 4 1.4 1.4.4 2.9.7 4.4 1 1.5.3 3 .4 4.5.5h2.2c.7 0 1.4-.1 1.9-.3.6-.2 1-.4 1.4-.7.4-.3.5-.8.6-1.3 0-.7-.2-1.3-.7-1.9-.5-.7-1.2-1.3-2.1-1.9zm-8.4-30.2c.8 0 1.7-.1 2.7-.4 1-.2 1.9-.5 2.6-.8.7-.3 1.2-.6 1.6-1s.7-.8.8-1.2c.1-.4.1-.9 0-1.3-.1-.5-.5-1-1-1.5s-1.2-.8-2-1.1c-.8-.3-1.7-.4-2.8-.5-1 0-2.1.1-3.3.3-.8.2-1.4.4-1.9.7-.5.3-.9.6-1.1.9s-.4.7-.5 1.1 0 .8.1 1.3c.2.8.5 1.4.9 1.9s1 .8 1.6 1.1c.7.4 1.4.5 2.3.5zm-7.1 88c.6.3 1.1.5 1.5.6.4.1.8.1 1 .1.3 0 .5-.2.7-.4.2-.2.4-.5.5-.8.2-.4.2-1 0-1.6-.2-.6-.5-1.3-1-1.9-.5-.7-1.2-1.4-1.9-2.1-.8-.7-1.7-1.4-2.7-2-.5.5-1.2.5-2 .1-.9-.4-1.4-1.1-1.4-1.9-.8-.3-1.4-.4-1.8-.4-.4.1-.7.3-.9.8-.2.4-.2.9-.1 1.5.2.6.4 1.1.8 1.8.4.6.9 1.2 1.5 1.8.6.6 1.2 1.2 1.9 1.8.7.6 1.3 1.1 2 1.5.6.4 1.3.8 1.9 1.1zm-261.2-57.6c.7.4 1.6.8 2.7 1.1 1 .3 2.1.5 3.3.7.1-.4.3-.7.6-.9.3-.2.7-.2 1.1-.2.6 0 1 .1 1.4.3.4.2.6.5.8.9.4 0 .8-.1 1.1-.2.3-.1.5-.2.7-.3.2-.1.3-.3.4-.4.1-.2.1-.4.1-.7 0-.5-.2-.9-.6-1.4s-.9-.8-1.5-1.2c-.6-.4-1.3-.7-2.1-1.1-.8-.3-1.6-.6-2.4-.8-.8-.2-1.7-.4-2.5-.5-.8-.1-1.6-.2-2.2-.2-.7 0-1.2.1-1.6.1-.4.1-.7.2-1 .4-.2.2-.4.4-.5.6-.1.3-.1.6-.1 1 0 .5.2 1 .7 1.4s.8 1 1.6 1.4z"/><path class="st3" d="M275 379.6c91.8 0 166.4-74.7 166.4-166.4 0-45.2-18.1-86.3-47.5-116.3-1.8 10.7-4.6 22.7-8.8 35.5-6.6 19.9-13.2 35.7-19.1 47.8 3.7 10.3 5.8 21.4 5.8 32.9 0 53.4-43.3 96.8-96.8 96.8-53.4 0-96.8-43.3-96.8-96.8 0-11.6 2-22.7 5.8-32.9-5.9-12.1-12.5-27.9-19.1-47.8-4.2-12.8-7-24.8-8.8-35.5-29.4 30-47.5 71.1-47.5 116.3 0 91.7 74.6 166.4 166.4 166.4zm142-139.1c-.1.6-.3 1.2-.6 1.8l-.9 1.8c-.3.6-.7 1.3-1 1.9s-.5 1.4-.7 2.1c-.1.7-.2 1.4-.2 2.1 0 .7.2 1.6.4 2.4v.2c-.7 0-1.3 0-1.9-.2-.9-.2-1.8-.6-2.5-1.1-.8-.6-1.5-1.2-2.2-2-.7-.8-1.3-1.7-1.9-2.6s-1.2-1.9-1.9-2.9-1.3-1.9-1.9-2.9-1.3-1.8-2.1-2.6-1.5-1.5-2.4-2c-.9-.6-1.8-1-2.9-1.2-.7-.1-1.4-.2-2-.2s-1.2.1-1.6.2c-.5.2-.9.4-1.2.7-.3.3-.5.7-.6 1.2-.1.5-.1.9 0 1.3s.2.8.5 1.1c.2.3.5.6.9.8.4.2.8.4 1.2.5 1 .2 1.8.2 2.6 0s1.3-.6 1.7-1h.2c.3.5.5 1.1.7 1.7.1.6.1 1.1 0 1.6-.1.4-.2.7-.5 1-.3.3-.6.6-1 .7-.4.2-.9.3-1.4.3s-1.1 0-1.8-.1c-.8-.2-1.5-.5-2.2-1-.7-.5-1.3-1.2-1.8-2s-.8-1.8-1-2.9c-.2-1.1-.1-2.3.1-3.7.2-1.1.6-2.1 1.1-3 .5-.9 1.2-1.6 1.9-2.1.8-.5 1.6-.9 2.6-1.1 1-.2 2-.2 3.1.1.9.2 1.8.5 2.5 1s1.4 1.1 2.1 1.8c.6.7 1.2 1.5 1.7 2.4l1.5 2.7c.5.9.9 1.9 1.4 2.8.4 1 .9 1.9 1.4 2.7.5.9 1 1.7 1.5 2.5s1.1 1.4 1.8 2V246c0-.4.1-.8.2-1.2.1-.6.3-1.3.5-1.8.2-.6.4-1.1.7-1.6l.6-1.5c.2-.5.3-.9.4-1.4.1-.7.1-1.3 0-2s-.5-1.4-1.2-2.2l.1-.1c1-.1 1.8-.1 2.5 0 .7.2 1.3.4 1.8.8s.9.9 1.2 1.5.5 1.2.6 1.9c.1.8.1 1.4-.1 2.1zm2.3-19c-.1 1.6-.4 2.9-.9 3.9s-1.3 1.8-2.2 2.4c-.9.6-2 1-3.2 1.2-1.2.2-2.5.3-3.9.2-1.8-.1-3.6-.3-5.3-.7-1.7-.4-3.3-.9-4.8-1.5s-2.9-1.4-4.1-2.2c-1.2-.9-2.3-1.8-3.2-2.9-.9-1-1.5-2.2-2-3.4-.5-1.2-.7-2.5-.6-3.9.1-1.3.3-2.4.8-3.4.5-.9 1.2-1.7 2.1-2.3.9-.6 1.9-1 3.1-1.3 1.2-.3 2.5-.4 4-.3 1 0 2 .1 3.1.3 1.1.2 2.2.4 3.4.7 1.2.3 2.3.6 3.5 1.1 1.2.4 2.3.9 3.3 1.5s2 1.2 2.9 1.9c.9.7 1.7 1.5 2.3 2.4.6.9 1.1 1.8 1.5 2.9.1 1 .3 2.1.2 3.4zM419 205l-25.3-2.9.4 3.8-1.9-.3c-.1-.5-.1-1.2-.2-1.8-.1-.7-.3-1.4-.6-2.2s-.7-1.7-1.2-2.7c-.5-1-1.2-2-2-3.1l30.4 3.6.4 5.6zm-33.4-26.1c.3-.6.7-1.1 1.1-1.5s1.1-.7 1.7-.8c.5-.1 1-.1 1.5-.1s.9.2 1.3.3.7.4 1 .7c.3.3.4.7.5 1.1.1.4.1.9-.1 1.3-.1.4-.4.7-.7 1-.3-.4-.7-.6-1.2-.7-.5-.1-.9-.1-1.4 0-.3.1-.5.2-.8.3s-.5.3-.6.5c-.2.2-.3.5-.3.7-.1.3-.1.6 0 .9.2.8.7 1.5 1.5 2.2.8.6 1.9 1.2 3.2 1.6 1.3.4 2.8.7 4.5.9 1.7.2 3.5.2 5.4.1l-.1-.1c-1.3-.2-2.4-.8-3.3-1.7-.9-.9-1.4-2.1-1.8-3.6-.2-.9-.2-1.7-.1-2.5s.4-1.5.9-2.2 1.1-1.2 1.8-1.7 1.7-.8 2.7-1.1c1-.2 1.9-.3 2.9-.3s1.9.2 2.9.4 1.8.6 2.7 1.1c.8.5 1.6 1 2.3 1.7.7.6 1.3 1.4 1.7 2.2.5.8.8 1.7 1 2.6.3 1.4.4 2.6.2 3.7s-.6 2.1-1.3 2.9c-.7.8-1.6 1.6-2.9 2.2-1.2.6-2.8 1.1-4.6 1.5-1.8.4-3.5.6-5.2.7s-3.3-.1-4.9-.3c-1.5-.3-3-.7-4.3-1.2-1.3-.6-2.6-1.3-3.6-2.1-1.1-.8-1.9-1.8-2.7-2.8-.7-1.1-1.2-2.2-1.5-3.5-.2-.9-.3-1.6-.2-2.4.3-.8.5-1.5.8-2zm-7.9 92.2l4.7 4.5 1.3-2 1.2 1.1-1.3 2 8.9 8.5.5.5c.2.1.3.2.5.4.5.3.9.4 1.2.3.3-.1.6-.4.9-.9.2-.3.3-.7.4-1.1s0-.8-.1-1.3c-.1-.4-.3-.9-.5-1.3s-.5-.9-.9-1.3l.4-.7c-.4-.2-.8-.5-1.2-.7-.8-.6-1.7-1.2-2.5-2s-1.6-1.6-2.2-2.5c-.7-.9-1.2-1.9-1.6-3-.4-1.1-.6-2.2-.6-3.4 0-1.2.3-2.4.9-3.6 1.3-2.9 3.7-3.6 7-2.3.1-.3.1-.7 0-1-.1-.4-.2-.7-.3-1s-.3-.6-.5-.9c-.2-.3-.3-.5-.5-.7l.5-1.2c.3.4.6.8 1 1.2.3.4.7.9 1 1.4.3.5.6 1 .8 1.6.2.6.4 1.1.4 1.7 1.7.9 3.1 2 4.3 3.1 1.2 1.1 2.1 2.3 2.7 3.5.6 1.2 1 2.4 1 3.7.1 1.2-.2 2.4-.7 3.6-.4.8-.9 1.6-1.4 2.2-.5.6-1.2 1.1-1.8 1.4-.7.3-1.5.4-2.3.4-.7 0-1.5-.2-2.4-.6.2.3.4.7.6 1 .4.8.8 1.6 1 2.3.2.7.3 1.4.3 2 0 .6 0 1.2-.1 1.7s-.2 1-.4 1.4c-.2.4-.4.8-.5 1.1-.3.5-.7.9-1.1 1.3s-.9.6-1.4.7c-.5.1-1.1.1-1.7 0-.6-.1-1.3-.4-2-.9-.3-.2-.6-.4-1-.7s-.7-.6-1.1-.9l-8.3-7.9-.7 1.1-1.2-1.1.7-1.1-4.1-3.9 2.2-5.7zm-15.9 31.3c.4-1.1 1.1-2.1 2.1-3.1 2.4-2.4 5.1-2.1 8.2.9.1 0 .1-.1.2-.1l.2-.2c.3-.3.6-.7.9-1.2.3-.5.5-1 .8-1.5.1-.2.1-.3.2-.5l-3.6-4.2 3.5-4.6 1.7 1.9c0-.5-.1-.9-.1-1.4s0-.9.1-1.4c.1-.5.2-.9.3-1.3.1-.4.4-.8.7-1.2.3-.4.6-.6.9-.8.3-.2.7-.3 1.1-.3s.7 0 1.1.2c.4.1.7.3 1 .6.3.2.5.5.7.8.2.3.3.6.4 1s.1.7 0 1.1c-.1.4-.3.8-.6 1.2-.2.3-.5.5-.7.6s-.4.1-.7.1-.4-.1-.6-.2l-.6-.3c-.2-.1-.4-.1-.5-.1-.2 0-.3.1-.4.2-.4.5-.6 1-.6 1.5v1.8l10.1 11.8-3.5 4.6-8.5-10c-.5 1.3-1.1 2.5-2 3.7 1.2 1.4 2.1 2.8 2.8 4.3.7 1.4 1.1 2.8 1.2 4.2.1 1.3 0 2.6-.3 3.8s-1 2.2-1.9 3.1c-.7.7-1.3 1.2-2.1 1.6-.7.4-1.5.6-2.2.7-.8 0-1.5-.1-2.3-.4-.8-.3-1.6-.9-2.4-1.7-.6-.6-1.1-1.2-1.7-2.1-.6-.8-1.1-1.7-1.6-2.7-.5-1-.9-2.1-1.2-3.2-.3-1.1-.5-2.2-.5-3.4-.2-1.5 0-2.7.4-3.8zm-24 12.8c.1-1 .3-2.1.7-3.1.3-1.1.8-2.1 1.4-3.1.6-1 1.2-1.9 2-2.8s1.6-1.6 2.5-2.3c1.3-1 2.6-1.6 3.8-2s2.3-.4 3.4-.3c1.1.1 2 .5 2.9 1 .8.5 1.6 1.2 2.2 2.1.8 1 1.3 2.2 1.6 3.6.3 1.3.4 2.7.2 4.1-.2 1.4-.7 2.8-1.5 4.2-.8 1.4-1.9 2.6-3.3 3.6l-.2.1 4.7 10.7-4.6 3.4-10.6-23.8 4.3-4.1 5.6 12.5c.5-.4.9-1 1.2-1.6.3-.6.5-1.3.7-2s.2-1.4.1-2.2c0-.8-.1-1.5-.3-2.3-.2-.7-.4-1.5-.7-2.2-.3-.7-.7-1.3-1.1-1.9-.4-.6-.9-1.1-1.5-1.5-.5-.4-1.1-.7-1.7-.9-.6-.2-1.3-.2-1.9 0-.7.1-1.4.5-2.1 1-1.3 1-2.4 2-3.1 3.1-.8 1.1-1.3 2.3-1.5 3.5-.2 1.2-.2 2.4.2 3.7.3 1.2.9 2.5 1.8 3.7.3.4.6.7.8 1s.4.4.6.5c.2.1.3.2.4.2.1 0 .2.1.2.2-.6.4-1.1.7-1.6.9-.5.2-1 .3-1.5.3s-.9-.2-1.4-.5c-.4-.3-.9-.7-1.3-1.3-.5-.7-.9-1.5-1.1-2.5-.3-1-.4-2-.3-3zm-35.6 20.9l3.3-.5c.4-.1.8-.3 1-.7l1.5-3c.5-1 1.9-1 2.4 0l1.5 3c.2.4.6.7 1 .7l3.3.5c1.1.2 1.5 1.5.7 2.3l-2.4 2.3c-.3.3-.5.7-.4 1.2l.6 3.3c.2 1.1-1 1.9-1.9 1.4l-2.9-1.5c-.4-.2-.8-.2-1.2 0l-2.9 1.5c-1 .5-2.1-.3-1.9-1.4l.6-3.3c.1-.4-.1-.9-.4-1.2l-2.4-2.3c-1-.8-.6-2.1.5-2.3zm-41.2 5.2l8.2-1.2c.4-.1.8-.3 1-.7l3.7-7.4c.5-1 1.9-1 2.4 0l3.7 7.4c.2.4.6.7 1 .7l8.2 1.2c1.1.2 1.5 1.5.7 2.3l-5.9 5.8c-.3.3-.5.7-.4 1.2l1.4 8.1c.2 1.1-1 1.9-1.9 1.4l-7.3-3.8c-.4-.2-.8-.2-1.2 0l-7.3 3.8c-1 .5-2.1-.3-1.9-1.4l1.4-8.1c.1-.4-.1-.9-.4-1.2l-5.9-5.8c-1-.8-.6-2.2.5-2.3zm-27.1-5.2l3.3-.5c.4-.1.8-.3 1-.7l1.5-3c.5-1 1.9-1 2.4 0l1.5 3c.2.4.6.7 1 .7l3.3.5c1.1.2 1.5 1.5.7 2.3l-2.4 2.3c-.3.3-.5.7-.4 1.2l.6 3.3c.2 1.1-1 1.9-1.9 1.4l-2.9-1.5c-.4-.2-.8-.2-1.2 0l-2.9 1.5c-1 .5-2.1-.3-1.9-1.4l.6-3.3c.1-.4-.1-.9-.4-1.2l-2.4-2.3c-1.1-.8-.6-2.1.5-2.3zm-26.3-20.4l-2.2 2.2c.8-.1 1.5-.1 2.4.1.8.1 1.6.5 2.5 1 .6.4 1 .8 1.4 1.3.4.5.6 1.1.7 1.7.1.6 0 1.4-.2 2.2-.2.8-.7 1.7-1.3 2.7-.5.8-1.1 1.5-1.8 2.3-.7.8-1.4 1.6-2.2 2.3-.8.7-1.7 1.3-2.6 1.9-.9.5-1.9.9-2.9 1.2s-2.1.3-3.1.1c-1.1-.2-2.2-.6-3.2-1.3-.4-.3-.8-.6-1-.8-.3-.3-.5-.5-.6-.8s-.3-.5-.3-.7-.1-.5-.1-.7l-7.1 7-5.8-2.1 22.8-22.7 4.6 3.1zm-27.9-22l4.1 4-1.8 1.2c.6 0 1.2 0 1.7.1s1 .2 1.4.4c.4.2.8.4 1.1.6.3.2.6.5.9.7.4.4.7.7.9 1.2s.4.8.5 1.3c.1.4 0 .9-.1 1.4-.1.5-.4 1-.7 1.5.9-.2 1.6-.3 2.3-.2s1.3.1 1.8.3c.5.2.9.4 1.3.6.4.3.7.5 1 .8.5.4.8.9 1.1 1.4s.4 1 .5 1.6-.1 1.1-.3 1.7-.6 1.1-1.2 1.7c-.4.4-.8.8-1.3 1.1-.5.4-1 .7-1.6 1.1-.5.4-1.1.7-1.7 1.1-.6.3-1.1.7-1.6 1-.5.3-1 .6-1.4.9-.4.3-.8.6-1 .8-.3.4-.5.7-.6 1.1-.1.4.1.8.6 1.2.3.3.6.5 1 .6.4.1.7.1 1.1.1.4 0 .8-.1 1.3-.3.5-.2.9-.4 1.5-.6l1.2 1.2c-1.5.8-2.9 1.3-4 1.6s-2.1.3-3 .2c-.8-.1-1.5-.3-2.1-.6-.6-.3-1-.7-1.4-1-.6-.6-1.1-1.2-1.3-1.8s-.4-1.2-.3-1.7c0-.6.2-1.1.4-1.6.3-.5.6-1 1-1.4.5-.5 1.1-1 1.9-1.5.8-.5 1.6-1 2.4-1.6l2.4-1.5c.8-.5 1.4-1 1.8-1.4 1-1 1.1-1.8.4-2.5-.3-.3-.6-.4-.9-.5-.4-.1-.7-.1-1.2 0s-.9.2-1.3.4c-.5.2-.9.4-1.4.6l-11.1 7-4.1-4 11.7-7.9c.3-.2.5-.4.8-.6.2-.2.3-.3.4-.5.1-.2.2-.4.2-.5v-.5c0-.2-.1-.3-.3-.5-.3-.3-.6-.5-1-.5-.4-.1-.8-.1-1.2-.1-.4.1-.9.2-1.3.4-.5.2-.9.4-1.4.7l-10.9 7.3-4.1-4 16.9-11.6zm-16.9 4.7c.2.3.5.6.9.7.4.2.7.3 1.2.3.4 0 .9 0 1.4-.1.5-.1 1-.2 1.5-.4l.9 1.4c-1.1.3-2.1.5-3 .6-.9.1-1.7.1-2.4 0s-1.4-.2-1.9-.5c-.6-.2-1-.5-1.5-.8s-.8-.6-1.1-.9c-.3-.3-.5-.6-.7-.9-.6-.9-.9-1.9-.8-2.8s.7-1.8 1.6-2.6c-.6 0-1.1-.1-1.7-.1-.6-.1-1.1-.2-1.7-.4-.6-.2-1.1-.5-1.6-.9s-1-.8-1.4-1.4c-.4-.6-.7-1.2-.8-1.8-.2-.7-.2-1.3-.1-2s.5-1.4 1-2.1c.5-.7 1.3-1.4 2.2-2.1.8-.5 1.6-1 2.6-1.4 1-.4 2-.8 3.1-1.1 1.1-.3 2.2-.4 3.3-.5 1.1-.1 2.2 0 3.2.2s2 .6 2.9 1.1 1.7 1.3 2.3 2.3c.6.9.9 1.7.9 2.4 0 .6-.3 1.1-.8 1.5l-.2.2 2-.8 3.2 4.8-12.8 5.3-.6.3c-.2.1-.4.2-.5.3-1 .5-1.2 1.3-.6 2.2zm8.7-35.7c.8.8 1.5 1.8 2.1 3 .4.8.7 1.7.8 2.5.2.8.2 1.6 0 2.3-.1.7-.4 1.4-.9 2-.5.6-1.1 1.1-2 1.5-.5.2-.9.4-1.4.5s-.9.1-1.3.1c-.4-.1-.8-.2-1.1-.5-.3-.2-.6-.6-.8-1.1-.1-.3-.2-.6-.3-1.1-.1-.4 0-.9.3-1.4.2.2.5.3.8.4s.7.1 1 .2c.4 0 .8 0 1.2-.1s.8-.2 1.1-.4c.3-.1.5-.3.8-.5.2-.2.4-.4.5-.7.1-.3.2-.6.2-.9 0-.3-.1-.7-.3-1.1-.3-.7-.9-1.2-1.7-1.6-.8-.4-1.7-.7-2.8-.8-1.1-.2-2.3-.2-3.7-.2-1.3.1-2.7.2-4.1.5-1.4.3-2.8.6-4.2 1-1.4.4-2.7.9-4 1.5-.8.4-1.6.8-2.2 1.3s-1.1.9-1.5 1.5c-.3.6-.5 1.2-.5 1.9s.2 1.5.6 2.4c.7 1.4 1.6 2.6 2.8 3.5 1.2.9 2.6 1.5 4.1 1.8v1c-1.4.1-2.8-.1-4-.5-1.2-.4-2.4-1-3.3-1.7s-1.8-1.5-2.5-2.4c-.7-.9-1.3-1.7-1.7-2.6-.6-1.3-1-2.6-1.2-3.7s0-2.2.4-3.2 1.1-1.9 2.1-2.8c1-.9 2.3-1.7 3.9-2.4.8-.4 1.7-.8 2.8-1.1s2.1-.7 3.2-.9c1.1-.3 2.3-.5 3.5-.6 1.2-.1 2.4-.2 3.6-.2 1.2 0 2.4.2 3.5.4 1.2.3 2.2.6 3.2 1.2 1.3.5 2.2 1.2 3 2zm-4.9-6.3l-22 1.6h-.6c-.2 0-.4.1-.5.1-.4.1-.8.3-1 .7-.2.3-.3.8-.1 1.4.1.4.2.6.3.8.1.1.2.3.3.4-.7.1-1.3.2-1.9.1-.6-.1-1.1-.3-1.5-.6-.4-.3-.8-.7-1.1-1.1-.3-.4-.5-.9-.7-1.4-.1-.5-.2-1-.2-1.4s.1-.9.2-1.3c.2-.4.4-.8.7-1.2.3-.4.8-.7 1.3-1l-1.5-.6c-.5-.2-.9-.6-1.4-.9-.4-.4-.8-.8-1.1-1.3-.3-.5-.6-1-.8-1.7-.2-.7-.3-1.3-.2-2 0-.7.2-1.3.6-1.9.4-.6.9-1.2 1.6-1.7.7-.5 1.6-.9 2.8-1.3.9-.3 1.8-.4 2.9-.6 1.1-.1 2.1-.1 3.2-.1 1.1.1 2.2.2 3.3.5 1.1.3 2.1.7 3 1.2.9.5 1.7 1.2 2.4 2s1.2 1.8 1.5 2.9c.3 1.1.4 1.9.1 2.5-.2.6-.6 1-1.2 1.1h-.2l9.4-.7 2.4 5.5zM132.8 189l20 3.6-18.4-11.5 1.2-5.6 26.9 4.9c-.3-2-1.1-3.6-2.4-5s-3-2.2-5.2-2.7c-.5-.1-.9-.2-1.2-.2h-.8c-.2 0-.4.1-.5.1h-.3c.1-.7.3-1.3.6-1.8.2-.5.5-.9.9-1.2.4-.3.8-.5 1.3-.6.5-.1 1.1-.1 1.9.1.9.2 1.7.5 2.4 1.1.8.5 1.5 1.2 2.1 2 .6.8 1.2 1.7 1.6 2.7s.8 2.1 1.1 3.2c.3 1.1.4 2.2.4 3.4 0 1.2-.1 2.3-.3 3.4-.1.3-.1.6-.2.8-.1.2-.1.5-.2.7l-24.2-4.6 22.3 13.2-1 5-24.1-4.6 22.3 13.2-.6 2.8-27-16.9 1.4-5.5zm-.7 19.2c.5-.6 1.1-1 1.9-1.4s1.8-.5 2.9-.5c.8 0 1.7.1 2.7.2 1 .1 2 .4 3.1.7s2.1.8 3.1 1.3 1.9 1.2 2.7 2 1.5 1.7 2 2.8c.5 1.1.8 2.1.8 3.5.1 3.4-2 5.1-6.3 5.1v.6c0 .5.1 1 .2 1.5s.3 1.1.6 1.6c.1.1.1.3.2.4l5.6.4.8 5.7-2.5-.1c.4.3.7.6 1.1.9.3.3.7.7.9 1 .3.4.5.7.7 1.1s.3.8.4 1.3c.1.5 0 .9-.1 1.2-.1.4-.3.7-.5 1-.2.3-.5.5-.9.7s-.7.3-1.1.3c-.3.1-.7 0-1.1 0-.4-.1-.7-.2-1-.4-.3-.2-.6-.5-.8-.8-.2-.3-.4-.7-.4-1.2-.1-.4 0-.7.1-.9s.2-.4.4-.5l.6-.3c.2-.1.4-.2.6-.2.2-.1.3-.2.5-.3.1-.1.2-.3.1-.4-.1-.6-.3-1.1-.6-1.5-.3-.4-.8-.8-1.3-1.2l-15.5-1-.8-5.7 13.1.8c-.6-1.2-1-2.5-1.3-3.9-1.9-.1-3.5-.4-5-1-1.5-.5-2.8-1.2-3.8-2s-1.9-1.8-2.5-2.9c-.6-1.1-.9-2.2-.9-3.5 0-.9.1-1.8.3-2.6.1-.5.5-1.2 1-1.8z"/><path class="st3" d="M153 248.4c-.5-.4-1.1-.7-1.8-.9-.7-.2-1.5-.4-2.3-.5-.8-.1-1.7-.1-2.5-.1s-1.7.1-2.5.2-1.5.2-2.1.4c-.7.2-1.3.4-1.6.7-.4.3-.6.5-.7.8-.1.2-.2.5-.2.7 0 .2.1.4.1.6.1.3.2.5.4.8.2.3.5.5.8.7.3.2.7.4 1.1.5.4.1.9.2 1.4.2h.7l9.3-.7c.1-.1.2-.1.4-.2.1-.1.3-.2.4-.4.1-.2.2-.3.2-.6s0-.5-.1-.8c-.2-.6-.5-1-1-1.4zm17.8 38.2c.1-.1.2-.3.3-.5.1-.2.1-.4.1-.6 0-.2-.1-.5-.3-.8-.3-.5-.8-.8-1.3-1-.6-.2-1.2-.3-2-.3-.7 0-1.5.1-2.3.2-.8.2-1.6.4-2.4.7-.8.3-1.6.6-2.3.9-.7.3-1.3.7-1.8 1-.6.4-1.1.8-1.3 1.2-.3.4-.4.7-.5 1-.1.3 0 .5.1.7.1.2.2.4.3.5.2.2.4.5.7.7.3.2.7.3 1.1.4.4.1.9.1 1.4.1.5 0 1-.2 1.6-.4l8.5-3.5c-.1 0 0-.1.1-.3z"/><path class="st3" d="M460 188.1c-1.4-11.8 3.8-36.4-.5-47.5-4.2-11.1-24.4-26.1-31.2-35.9-6.7-9.8-13.6-34-22.5-41.9-2.1-1.9-5.2-3.5-8.7-5.1.1 7.3-.2 18.8-2.3 33.2 31.7 31.1 51.3 74.3 51.3 122.2 0 94.6-76.7 171.2-171.2 171.2-94.6 0-171.2-76.7-171.2-171.2 0-47.9 19.7-91.1 51.3-122.2-2.1-14.3-2.4-25.8-2.3-33.2-3.5 1.5-6.6 3.2-8.7 5.1-8.9 7.9-15.8 32.1-22.5 41.9-6.8 9.8-27 24.8-31.2 35.9-4.2 11.1 1 35.7-.5 47.5-1.4 11.8-12.4 34.5-10.9 46.3 1.4 11.8 17.5 31.2 21.7 42.3 4.2 11.1 5.1 36.3 11.8 46 6.7 9.8 30 19.5 38.9 27.4 8.9 7.9 21.3 29.7 31.9 35.3 10.5 5.5 35.6 3.3 47.1 6.2 11.5 2.8 32.7 16.4 44.6 16.4 11.9 0 33.1-13.6 44.6-16.4 11.5-2.8 36.6-.7 47.1-6.2s23-27.4 31.9-35.3c8.9-7.9 32.1-17.6 38.9-27.4 6.8-9.8 7.6-34.9 11.8-46 4.2-11.1 20.2-30.5 21.7-42.3 1.5-11.8-9.4-34.5-10.9-46.3z"/><path class="st3" d="M195.8 329.8c.6.4 1.2.6 1.9.6s1.3-.1 2-.4c.7-.3 1.3-.6 2-1.1.7-.5 1.3-1 1.9-1.6.6-.6 1.1-1.1 1.6-1.8.5-.6.9-1.2 1.3-1.7.4-.6.7-1.2.8-1.6.1-.4.2-.8.1-1.1 0-.3-.2-.5-.3-.7-.2-.2-.3-.3-.5-.4-.4-.2-.9-.4-1.5-.4s-1.2.2-1.9.5l-8.1 8.1c-.1.2 0 .5.1.8 0 .2.3.5.6.8z"/><path class="st2" d="M278.3 216.6l3.5.1 1.9-9.6h-17.9l1.9 9.6 3.5-.2s-7.6 28.4-62.6 39.4c0 0 9.9 42.2 62.9 43.2h5c55-1 63.7-43.1 63.7-43.1-55.2-11.2-61.9-39.4-61.9-39.4zM276 35.7V33h-5v2.7l-123 5.6v7.8l126.5-5.8L401 49.1v-7.8z"/><path class="st3" d="M232.4 106.7c0 16.5 9.6 30.8 23.5 37.6L236 89.7c-2.3 5.2-3.6 10.9-3.6 17zm69.9-2.1c0-5.2-1.9-8.7-3.4-11.5-2.1-3.4-4.1-6.3-4.1-9.8 0-3.8 2.9-7.4 7-7.4h.5c-7.4-6.8-17.3-11-28.2-11-14.6 0-27.4 7.5-34.9 18.8 1 0 1.9.1 2.7.1 4.4 0 11.1-.5 11.1-.5 2.2-.1 2.5 3.2.3 3.4 0 0-2.3.3-4.8.4l15.2 45.2 9.1-27.4-6.5-17.8c-2.2-.1-4.4-.4-4.4-.4-2.2-.1-2-3.6.3-3.4 0 0 6.9.5 11 .5 4.4 0 11.1-.5 11.1-.5 2.2-.1 2.5 3.2.3 3.4 0 0-2.3.3-4.8.4L295 132l4.2-13.9c1.7-5.8 3.1-9.9 3.1-13.5z"/><path class="st3" d="M274.9 110.3l-12.5 36.4c3.7 1.1 7.7 1.7 11.8 1.7 4.9 0 9.5-.8 13.9-2.4l-.3-.6-12.9-35.1zm35.9-23.6c.2 1.3.3 2.8.3 4.3 0 4.2-.8 9-3.2 14.9l-12.7 36.9c12.4-7.2 20.8-20.7 20.8-36.1-.1-7.3-2-14.1-5.2-20z"/><path class="st3" d="M274.2 58.1c-26.8 0-48.6 21.8-48.6 48.6s21.8 48.6 48.6 48.6 48.6-21.8 48.6-48.6-21.8-48.6-48.6-48.6zm0 95c-25.6 0-46.4-20.8-46.4-46.4 0-25.6 20.8-46.4 46.4-46.4 25.6 0 46.4 20.8 46.4 46.4 0 25.6-20.9 46.4-46.4 46.4zm-56.4 100.8c19.3-5 31.7-12.3 39.7-19.1-.5-3.7-1.4-4.7-1.4-4.7s-9.3-5.8-20.4-5.8-20.4 5.8-20.4 5.8-1.7 1.9-1.7 11.2c0 9.3 1.7 11.2 1.7 11.2s1 .6 2.5 1.4zm113.5.2c1.7-.8 2.8-1.5 2.8-1.5s1.7-1.9 1.7-11.2c0-9.3-1.7-11.2-1.7-11.2s-9.3-5.8-20.4-5.8-20.4 5.8-20.4 5.8-.9 1-1.4 5.1c7.9 6.7 20.3 13.8 39.4 18.8z"/><path class="st0" d="M241.4 443.8H239l-.7 3.8H237l.7-3.8h-2.2v-1.3h2.5l.6-3.3h-2.4V438h2.6l.8-3.9h1.3l-.8 3.9h2.4l.8-3.9h1.3l-.8 3.9h1.9v1.3h-2.1l-.6 3.3h2.1v1.3h-2.3l-.7 3.8h-1.3l.6-3.9zm-2.2-1.2h2.4l.6-3.3h-2.4l-.6 3.3zm17 2.7l1.9-7.7h1.7l-2.9 10h-1.4l-2.4-7.6-2.4 7.6h-1.4l-2.9-10h1.7l2 7.5 2.3-7.5h1.4l2.4 7.7zm9.5 1.1c.6 0 1.1-.2 1.6-.6.5-.4.7-.8.8-1.4h1.6c0 .6-.2 1.1-.6 1.6-.4.5-.9.9-1.5 1.2-.6.3-1.3.5-1.9.5-1.4 0-2.5-.5-3.3-1.4-.8-.9-1.2-2.2-1.2-3.7v-.3c0-1 .2-1.8.5-2.6.4-.8.9-1.4 1.5-1.8.7-.4 1.5-.6 2.4-.6 1.1 0 2.1.3 2.8 1 .7.7 1.1 1.5 1.2 2.6H268c0-.6-.3-1.2-.7-1.6-.4-.4-1-.6-1.6-.6-.9 0-1.5.3-2 .9-.5.6-.7 1.5-.7 2.7v.3c0 1.2.2 2 .7 2.7.4.8 1.1 1.1 2 1.1zm14.3-3.7c0 1.5-.3 2.8-1 3.7-.7.9-1.6 1.4-2.8 1.4-1.2 0-2.2-.4-2.9-1.2v4.8h-1.7v-13.9h1.6l.1 1.1c.7-.9 1.7-1.3 2.9-1.3s2.2.5 2.9 1.4c.7.9 1.1 2.2 1.1 3.8v.2zm-1.7-.2c0-1.1-.2-2-.7-2.7-.5-.7-1.1-1-2-1-1 0-1.8.5-2.3 1.4v4.8c.5.9 1.3 1.4 2.4 1.4.8 0 1.5-.3 2-1 .4-.6.6-1.6.6-2.9zm3.5 0c0-1 .2-1.9.6-2.7.4-.8.9-1.4 1.6-1.8.7-.4 1.5-.6 2.4-.6 1.4 0 2.5.5 3.3 1.4.8.9 1.3 2.2 1.3 3.8v.1c0 1-.2 1.9-.6 2.6-.4.8-.9 1.4-1.6 1.8-.7.4-1.5.6-2.4.6-1.4 0-2.5-.5-3.3-1.4-.8-.9-1.3-2.2-1.3-3.8zm1.7.2c0 1.1.3 2 .8 2.7s1.2 1 2.1 1c.9 0 1.6-.3 2.1-1s.8-1.6.8-2.9c0-1.1-.3-2-.8-2.7s-1.2-1-2.1-1c-.8 0-1.5.3-2 1-.6.7-.9 1.7-.9 2.9zm14.4-3.6c-.3 0-.5-.1-.8-.1-1.1 0-1.9.5-2.3 1.4v7.1h-1.7v-10h1.7v1.2c.6-.9 1.4-1.3 2.4-1.3.3 0 .6 0 .8.1v1.6zm4.4-3.9v2.4h1.9v1.3h-1.9v6.2c0 .4.1.7.3.9s.5.3.9.3c.2 0 .5 0 .8-.1v1.4c-.5.1-.9.2-1.3.2-.8 0-1.3-.2-1.7-.7-.4-.5-.6-1.1-.6-2v-6.2h-1.8v-1.3h1.8v-2.4h1.6zm3.2 7.3c0-1 .2-1.9.6-2.7.4-.8.9-1.4 1.6-1.8.7-.4 1.5-.6 2.4-.6 1.4 0 2.5.5 3.3 1.4.8.9 1.3 2.2 1.3 3.8v.1c0 1-.2 1.9-.6 2.6-.4.8-.9 1.4-1.6 1.8-.7.4-1.5.6-2.4.6-1.4 0-2.5-.5-3.3-1.4-.8-.9-1.3-2.2-1.3-3.8zm1.8.2c0 1.1.3 2 .8 2.7s1.2 1 2.1 1c.9 0 1.6-.3 2.1-1s.8-1.6.8-2.9c0-1.1-.3-2-.8-2.7s-1.2-1-2.1-1c-.8 0-1.5.3-2 1-.7.7-.9 1.7-.9 2.9zm-87.2 23.9h-2.4l-.7 3.8h-1.3l.7-3.8h-2.2v-1.3h2.5l.6-3.3h-2.4v-1.3h2.6l.8-3.9h1.3l-.8 3.9h2.4l.8-3.9h1.3l-.8 3.9h1.9v1.3h-2.1l-.6 3.3h2.1v1.3h-2.3l-.7 3.8h-1.3l.6-3.8zm-2.2-1.2h2.4l.6-3.3h-2.4l-.6 3.3zm17 2.7l1.9-7.7h1.7l-2.9 10h-1.4l-2.4-7.6-2.4 7.6H228l-2.9-10h1.7l2 7.5 2.3-7.5h1.4l2.4 7.7zm9.4 1.1c.6 0 1.1-.2 1.6-.6.5-.4.7-.8.8-1.4h1.6c0 .6-.2 1.1-.6 1.6-.4.5-.9.9-1.5 1.2-.6.3-1.3.5-1.9.5-1.4 0-2.5-.5-3.3-1.4-.8-.9-1.2-2.2-1.2-3.7v-.3c0-1 .2-1.8.5-2.6.4-.8.9-1.4 1.5-1.8.7-.4 1.5-.6 2.4-.6 1.1 0 2.1.3 2.8 1 .7.7 1.1 1.5 1.2 2.6h-1.6c0-.6-.3-1.2-.7-1.6-.4-.4-1-.6-1.6-.6-.9 0-1.5.3-2 .9-.5.6-.7 1.5-.7 2.7v.3c0 1.2.2 2 .7 2.7.4.8 1.1 1.1 2 1.1zm14.4-3.7c0 1.5-.3 2.8-1 3.7-.7.9-1.6 1.4-2.8 1.4-1.2 0-2.2-.4-2.9-1.2v4.8h-1.7v-13.9h1.6l.1 1.1c.7-.9 1.7-1.3 2.9-1.3s2.2.5 2.9 1.4c.7.9 1.1 2.2 1.1 3.8v.2zm-1.7-.2c0-1.1-.2-2-.7-2.7-.5-.7-1.1-1-2-1-1 0-1.8.5-2.3 1.4v4.8c.5.9 1.3 1.4 2.4 1.4.8 0 1.5-.3 2-1 .4-.6.6-1.6.6-2.9zm3.4 0c0-1 .2-1.9.6-2.7.4-.8.9-1.4 1.6-1.8.7-.4 1.5-.6 2.4-.6 1.4 0 2.5.5 3.3 1.4.8.9 1.3 2.2 1.3 3.8v.1c0 1-.2 1.9-.6 2.6-.4.8-.9 1.4-1.6 1.8-.7.4-1.5.6-2.4.6-1.4 0-2.5-.5-3.3-1.4-.8-.9-1.3-2.2-1.3-3.8zm1.8.2c0 1.1.3 2 .8 2.7.5.7 1.2 1 2.1 1 .9 0 1.6-.3 2.1-1s.8-1.6.8-2.9c0-1.1-.3-2-.8-2.7-.5-.7-1.2-1-2.1-1-.8 0-1.5.3-2.1 1-.6.7-.8 1.7-.8 2.9zm14.4-3.6c-.3 0-.5-.1-.8-.1-1.1 0-1.9.5-2.3 1.4v7.1h-1.7v-10h1.7v1.2c.6-.9 1.4-1.3 2.4-1.3.3 0 .6 0 .8.1v1.6zm4.3-3.9v2.4h1.9v1.3h-1.9v6.2c0 .4.1.7.3.9s.5.3.9.3c.2 0 .5 0 .8-.1v1.4c-.5.1-.9.2-1.3.2-.8 0-1.3-.2-1.7-.7-.4-.5-.6-1.1-.6-2v-6.2h-1.8v-1.3h1.8V458h1.6zm3.3 7.3c0-1 .2-1.9.6-2.7.4-.8.9-1.4 1.6-1.8.7-.4 1.5-.6 2.4-.6 1.4 0 2.5.5 3.3 1.4.8.9 1.3 2.2 1.3 3.8v.1c0 1-.2 1.9-.6 2.6-.4.8-.9 1.4-1.6 1.8-.7.4-1.5.6-2.4.6-1.4 0-2.5-.5-3.3-1.4-.8-.9-1.3-2.2-1.3-3.8zm1.7.2c0 1.1.3 2 .8 2.7s1.2 1 2.1 1c.9 0 1.6-.3 2.1-1s.8-1.6.8-2.9c0-1.1-.3-2-.8-2.7s-1.2-1-2.1-1c-.8 0-1.5.3-2 1-.6.7-.9 1.7-.9 2.9zm18.3 4.9h-8.9v-1.2l4.7-5.2c.7-.8 1.2-1.4 1.4-1.9.3-.5.4-1 .4-1.5 0-.7-.2-1.3-.6-1.7-.4-.5-1-.7-1.7-.7-.9 0-1.5.2-2 .7-.5.5-.7 1.2-.7 2H295c0-1.2.4-2.2 1.2-3s1.9-1.2 3.2-1.2c1.3 0 2.2.3 3 1 .7.7 1.1 1.5 1.1 2.6 0 1.3-.8 2.9-2.5 4.8l-3.6 3.9h6.8v1.4zm10.2-5.7c0 2-.3 3.5-1 4.5s-1.8 1.5-3.2 1.5c-1.4 0-2.5-.5-3.2-1.4-.7-1-1.1-2.4-1.1-4.3v-2.3c0-2 .3-3.5 1-4.4s1.8-1.4 3.2-1.4c1.5 0 2.5.5 3.2 1.4s1 2.4 1.1 4.3v2.1zm-1.7-2.4c0-1.5-.2-2.5-.6-3.2-.4-.7-1.1-1-1.9-1-.9 0-1.5.3-1.9 1-.4.7-.6 1.7-.6 3.1v2.7c0 1.5.2 2.5.6 3.2.4.7 1.1 1 1.9 1 .8 0 1.5-.3 1.9-1 .4-.7.6-1.7.6-3.1v-2.7zm9.6 8.1h-1.7V459l-3.5 1.3v-1.6l4.9-1.8h.3v13.5zm11.7-13.5v1.5h-.3c-1.3 0-2.4.4-3.2 1.2-.8.8-1.2 1.8-1.4 3.2.7-.8 1.7-1.2 2.9-1.2s2.1.4 2.8 1.2c.7.8 1.1 1.9 1.1 3.2 0 1.4-.4 2.5-1.1 3.3-.8.8-1.8 1.3-3 1.3-1.3 0-2.3-.5-3.1-1.5-.8-1-1.2-2.3-1.2-3.8v-.7c0-2.5.5-4.4 1.6-5.7 1.1-1.3 2.6-2 4.7-2h.2zm-2.2 6.1c-.6 0-1.1.2-1.6.5-.5.4-.8.8-1 1.3v.6c0 1.1.3 2 .8 2.7.5.7 1.1 1 1.9 1 .8 0 1.4-.3 1.8-.9.4-.6.7-1.3.7-2.2 0-.9-.2-1.7-.7-2.2-.6-.5-1.2-.8-1.9-.8z"/></g></svg>