<svg id="Layer_1" xmlns="http://www.w3.org/2000/svg" viewBox="0 0 260 260"><style>.st0{fill:#24648e}.st1{fill:#ff6d63}</style><path class="st0" d="M111.4 191.7c-2-1.1-10-5.3-19.2-5.3-10.7 0-19.7 5.6-19.7 5.6s-1.7 1.9-1.7 10.9c0 3.8.3 6.3.7 8 20.9-5.2 33.1-13.1 39.9-19.2z"/><path class="st1" d="M133.2 178.9h3.4l1.9-9.4h-17.3l1.9 9.4 3.4-.2s-7.6 27.4-60.7 38.1c0 0 9.4 40.8 60.4 41.8h5c53-1 61.6-41.7 61.6-41.7-53.2-10.7-59.6-38-59.6-38z"/><path class="st0" d="M89 72.8c0 15.9 9.3 29.7 22.7 36.3L92.5 56.4C90.2 61.4 89 67 89 72.8zm67.5-2c0-5-1.8-8.4-3.3-11.1-2-3.3-4-6.1-4-9.5 0-3.7 2.8-7.2 6.8-7.2h.5c-7.2-6.6-16.7-10.6-27.2-10.6-14.1 0-26.5 7.2-33.7 18.2h2.6c4.2 0 10.7-.5 10.7-.5 2.2-.1 2.4 3.1.3 3.3 0 0-2.2.3-4.6.4l14.7 43.6 8.8-26.4-6.3-17.2c-2.2-.1-4.2-.4-4.2-.4-2.2-.1-1.9-3.4.3-3.3 0 0 6.7.5 10.6.5 4.2 0 10.7-.5 10.7-.5 2.2-.1 2.4 3.1.3 3.3 0 0-2.2.3-4.6.4l14.6 43.3 4-13.4c1.6-5.5 3-9.5 3-12.9zM130 76.3l-12.1 35.1c3.6 1.1 7.4 1.6 11.4 1.6 4.7 0 9.2-.8 13.4-2.3l-.3-.6L130 76.3zm34.6-22.8c.2 1.3.3 2.7.3 4.1 0 4.1-.8 8.7-3.1 14.4l-12.3 35.6c12-7 20-20 20-34.8.1-7-1.7-13.6-4.9-19.3zm11.6 19.3c0 25.9-21.1 47-47 47s-47-21.1-47-47 21.1-47 47-47c26 0 47 21.1 47 47zm-2.1 0c0-24.7-20.1-44.8-44.8-44.8-24.7 0-44.8 20.1-44.8 44.8 0 24.7 20.1 44.8 44.8 44.8 24.7 0 44.8-20.1 44.8-44.8zm14 138.2c.4-1.6.7-4.2.7-8.2 0-9-1.7-10.9-1.7-10.9s-9-5.6-19.7-5.6c-9.9 0-18.3 4.8-19.5 5.5 6.8 6.2 19 14.1 40.2 19.2z"/><path class="st0" d="M251.6 22.4l-4.7-.2c.4 10.8.4 40.8-11.5 77-14.7 44.5-29.7 68-35.4 75.9-5.9-3-18.8-9.6-37.7-19.4-21.6-11.2-28.2-19.2-28.3-19.2l-3.8-5.1-4 5.1c-.1.1-6.7 8-28.3 19.2C79 165.4 66.1 172 60.2 175c-5.7-7.9-20.8-31.4-35.5-75.9-12.1-36.6-12.1-67-11.6-77.4L8 22c-.4 11.1-.3 41.7 12 78.7 19.1 57.9 38.8 80.6 38.8 80.6s14.6-7.3 41.5-21.3c23.2-12 29.9-20.5 29.9-20.5s6.7 8.5 29.9 20.5c26.9 14 41.5 21.3 41.5 21.3s19.4-22.7 38.5-80.6c12.5-38.3 11.5-78.3 11.5-78.3z"/><path class="st1" d="M131.1 4.2V1.5h-5v2.7L8.1 9.7v7.5l122-5.6 122 5.6V9.7z"/></svg>